<?xml version="1.0" encoding="UTF-8" standalone="no"?>
<!DOCTYPE svg PUBLIC "-//W3C//DTD SVG 1.1//EN"
 "http://www.w3.org/Graphics/SVG/1.1/DTD/svg11.dtd">
<!-- Generated by graphviz version 2.38.0 (20140413.2041)
 -->
<!-- Title: IControl Pages: 1 -->
<svg width="400pt" height="1484pt"
 viewBox="0.00 0.00 400.00 1484.00" xmlns="http://www.w3.org/2000/svg" xmlns:xlink="http://www.w3.org/1999/xlink">
<g id="graph0" class="graph" transform="scale(1 1) rotate(0) translate(4 1480)">
<title>IControl</title>
<polygon fill="white" stroke="none" points="-4,4 -4,-1480 396,-1480 396,4 -4,4"/>
<!-- Node1 -->
<g id="node1" class="node"><title>Node1</title>
<polygon fill="#bfbfbf" stroke="black" points="0,-734.5 0,-753.5 53,-753.5 53,-734.5 0,-734.5"/>
<text text-anchor="middle" x="26.5" y="-741.5" font-family="Helvetica,sans-Serif" font-size="10.00">IControl</text>
</g>
<!-- Node2 -->
<g id="node2" class="node"><title>Node2</title>
<g id="a_node2"><a xlink:href="class_g_f_x_label_control.html" target="_top" xlink:title="Control to display the graphics backend. ">
<polygon fill="white" stroke="black" points="116,-1456.5 116,-1475.5 211,-1475.5 211,-1456.5 116,-1456.5"/>
<text text-anchor="middle" x="163.5" y="-1463.5" font-family="Helvetica,sans-Serif" font-size="10.00">GFXLabelControl</text>
</a>
</g>
</g>
<!-- Node1&#45;&gt;Node2 -->
<g id="edge1" class="edge"><title>Node1&#45;&gt;Node2</title>
<path fill="none" stroke="midnightblue" d="M27.891,-763.809C30.2109,-872.494 43.6486,-1393.43 89,-1447 95.8131,-1455.05 105.546,-1459.92 115.708,-1462.82"/>
<polygon fill="midnightblue" stroke="midnightblue" points="31.3863,-763.539 27.6807,-753.613 24.3878,-763.684 31.3863,-763.539"/>
</g>
<!-- Node3 -->
<g id="node3" class="node"><title>Node3</title>
<g id="a_node3"><a xlink:href="class_i_bitmap_control.html" target="_top" xlink:title="A basic control to draw a bitmap, or one frame of a stacked bitmap depending on the current value...">
<polygon fill="white" stroke="black" points="119.5,-1418.5 119.5,-1437.5 207.5,-1437.5 207.5,-1418.5 119.5,-1418.5"/>
<text text-anchor="middle" x="163.5" y="-1425.5" font-family="Helvetica,sans-Serif" font-size="10.00">IBitmapControl</text>
</a>
</g>
</g>
<!-- Node1&#45;&gt;Node3 -->
<g id="edge2" class="edge"><title>Node1&#45;&gt;Node3</title>
<path fill="none" stroke="midnightblue" d="M27.993,-763.714C30.7901,-868.632 46.0894,-1358.57 89,-1409 96.6017,-1417.93 107.801,-1422.95 119.179,-1425.7"/>
<polygon fill="midnightblue" stroke="midnightblue" points="31.4884,-763.487 27.7303,-753.581 24.4907,-763.668 31.4884,-763.487"/>
</g>
<!-- Node4 -->
<g id="node4" class="node"><title>Node4</title>
<g id="a_node4"><a xlink:href="class_i_button_control_base.html" target="_top" xlink:title="A base class for buttons/momentary switches &#45; cannot be linked to parameters. ">
<polygon fill="white" stroke="black" points="108.5,-1380.5 108.5,-1399.5 218.5,-1399.5 218.5,-1380.5 108.5,-1380.5"/>
<text text-anchor="middle" x="163.5" y="-1387.5" font-family="Helvetica,sans-Serif" font-size="10.00">IButtonControlBase</text>
</a>
</g>
</g>
<!-- Node1&#45;&gt;Node4 -->
<g id="edge3" class="edge"><title>Node1&#45;&gt;Node4</title>
<path fill="none" stroke="midnightblue" d="M28.1034,-763.527C31.3921,-864.409 48.5148,-1323.69 89,-1371 94.1415,-1377.01 100.91,-1381.24 108.261,-1384.21"/>
<polygon fill="midnightblue" stroke="midnightblue" points="31.6008,-763.388 27.7843,-753.504 24.6044,-763.611 31.6008,-763.388"/>
</g>
<!-- Node7 -->
<g id="node7" class="node"><title>Node7</title>
<g id="a_node7"><a xlink:href="class_i_color_picker_control.html" target="_top" xlink:title="A control for choosing a color. ">
<polygon fill="white" stroke="black" points="110,-1342.5 110,-1361.5 217,-1361.5 217,-1342.5 110,-1342.5"/>
<text text-anchor="middle" x="163.5" y="-1349.5" font-family="Helvetica,sans-Serif" font-size="10.00">IColorPickerControl</text>
</a>
</g>
</g>
<!-- Node1&#45;&gt;Node7 -->
<g id="edge6" class="edge"><title>Node1&#45;&gt;Node7</title>
<path fill="none" stroke="midnightblue" d="M28.2468,-763.864C32.0966,-861.642 51.0053,-1288.88 89,-1333 94.5043,-1339.39 101.85,-1343.78 109.773,-1346.75"/>
<polygon fill="midnightblue" stroke="midnightblue" points="31.7432,-763.701 27.8601,-753.844 24.7484,-763.971 31.7432,-763.701"/>
</g>
<!-- Node8 -->
<g id="node8" class="node"><title>Node8</title>
<g id="a_node8"><a xlink:href="class_i_corner_resizer_control.html" target="_top" xlink:title="A control for resizing the plug&#45;in window by clicking and dragging in the bottom right&#45;hand corner Th...">
<polygon fill="white" stroke="black" points="104,-1304.5 104,-1323.5 223,-1323.5 223,-1304.5 104,-1304.5"/>
<text text-anchor="middle" x="163.5" y="-1311.5" font-family="Helvetica,sans-Serif" font-size="10.00">ICornerResizerControl</text>
</a>
</g>
</g>
<!-- Node1&#45;&gt;Node8 -->
<g id="edge7" class="edge"><title>Node1&#45;&gt;Node8</title>
<path fill="none" stroke="midnightblue" d="M28.3915,-763.741C32.7926,-857.385 53.4307,-1253.99 89,-1295 93.1452,-1299.78 98.32,-1303.43 103.992,-1306.22"/>
<polygon fill="midnightblue" stroke="midnightblue" points="31.8833,-763.48 27.9256,-753.653 24.8907,-763.803 31.8833,-763.48"/>
</g>
<!-- Node9 -->
<g id="node9" class="node"><title>Node9</title>
<g id="a_node9"><a xlink:href="class_i_dir_browse_control_base.html" target="_top" xlink:title="An abstract IControl base class that you can inherit from in order to make a control that pops up a m...">
<polygon fill="white" stroke="black" points="101,-1266.5 101,-1285.5 226,-1285.5 226,-1266.5 101,-1266.5"/>
<text text-anchor="middle" x="163.5" y="-1273.5" font-family="Helvetica,sans-Serif" font-size="10.00">IDirBrowseControlBase</text>
</a>
</g>
</g>
<!-- Node1&#45;&gt;Node9 -->
<g id="edge8" class="edge"><title>Node1&#45;&gt;Node9</title>
<path fill="none" stroke="midnightblue" d="M28.5808,-764.06C33.6124,-854.216 55.906,-1219.16 89,-1257 92.3838,-1260.87 96.4425,-1264 100.892,-1266.53"/>
<polygon fill="midnightblue" stroke="midnightblue" points="32.0626,-763.632 28.0192,-753.84 25.0732,-764.017 32.0626,-763.632"/>
</g>
<!-- Node11 -->
<g id="node11" class="node"><title>Node11</title>
<g id="a_node11"><a xlink:href="class_i_f_p_s_display_control.html" target="_top" xlink:title="Performance display meter, based on code from NanoVG This is a special control that lives outside the...">
<polygon fill="white" stroke="black" points="110.5,-1228.5 110.5,-1247.5 216.5,-1247.5 216.5,-1228.5 110.5,-1228.5"/>
<text text-anchor="middle" x="163.5" y="-1235.5" font-family="Helvetica,sans-Serif" font-size="10.00">IFPSDisplayControl</text>
</a>
</g>
</g>
<!-- Node1&#45;&gt;Node11 -->
<g id="edge10" class="edge"><title>Node1&#45;&gt;Node11</title>
<path fill="none" stroke="midnightblue" d="M27.2253,-764.207C26.536,-845.826 28.151,-1150.08 89,-1219 94.6701,-1225.42 102.199,-1229.81 110.278,-1232.78"/>
<polygon fill="midnightblue" stroke="midnightblue" points="30.729,-763.872 27.3369,-753.835 23.7294,-763.797 30.729,-763.872"/>
</g>
<!-- Node12 -->
<g id="node12" class="node"><title>Node12</title>
<g id="a_node12"><a xlink:href="class_i_graphics_live_edit.html" target="_top" xlink:title="A control to enable live modification of control layout in an IGraphics context in debug builds This ...">
<polygon fill="white" stroke="black" points="114.5,-1190.5 114.5,-1209.5 212.5,-1209.5 212.5,-1190.5 114.5,-1190.5"/>
<text text-anchor="middle" x="163.5" y="-1197.5" font-family="Helvetica,sans-Serif" font-size="10.00">IGraphicsLiveEdit</text>
</a>
</g>
</g>
<!-- Node1&#45;&gt;Node12 -->
<g id="edge11" class="edge"><title>Node1&#45;&gt;Node12</title>
<path fill="none" stroke="midnightblue" d="M27.4779,-764.059C27.8077,-841.287 32.9433,-1118.21 89,-1181 95.671,-1188.47 104.859,-1193.18 114.482,-1196.11"/>
<polygon fill="midnightblue" stroke="midnightblue" points="30.9775,-763.794 27.4589,-753.8 23.9775,-763.807 30.9775,-763.794"/>
</g>
<!-- Node13 -->
<g id="node13" class="node"><title>Node13</title>
<g id="a_node13"><a xlink:href="class_i_knob_control_base.html" target="_top" xlink:title="A base class for knob/dial controls, to handle mouse action and Sender. ">
<polygon fill="white" stroke="red" points="113,-1152.5 113,-1171.5 214,-1171.5 214,-1152.5 113,-1152.5"/>
<text text-anchor="middle" x="163.5" y="-1159.5" font-family="Helvetica,sans-Serif" font-size="10.00">IKnobControlBase</text>
</a>
</g>
</g>
<!-- Node1&#45;&gt;Node13 -->
<g id="edge12" class="edge"><title>Node1&#45;&gt;Node13</title>
<path fill="none" stroke="midnightblue" d="M27.7689,-763.7C29.1621,-836.109 37.6723,-1086.26 89,-1143 95.2778,-1149.94 103.727,-1154.49 112.66,-1157.45"/>
<polygon fill="midnightblue" stroke="midnightblue" points="31.2679,-763.601 27.601,-753.661 24.2688,-763.719 31.2679,-763.601"/>
</g>
<!-- Node20 -->
<g id="node20" class="node"><title>Node20</title>
<g id="a_node20"><a xlink:href="class_i_lambda_control.html" target="_top" xlink:title="A control that can be specialised with a lambda function, for quick experiments without making a cust...">
<polygon fill="white" stroke="black" points="117.5,-1114.5 117.5,-1133.5 209.5,-1133.5 209.5,-1114.5 117.5,-1114.5"/>
<text text-anchor="middle" x="163.5" y="-1121.5" font-family="Helvetica,sans-Serif" font-size="10.00">ILambdaControl</text>
</a>
</g>
</g>
<!-- Node1&#45;&gt;Node20 -->
<g id="edge19" class="edge"><title>Node1&#45;&gt;Node20</title>
<path fill="none" stroke="midnightblue" d="M28.1319,-763.98C30.6966,-832.193 42.5344,-1054.45 89,-1105 96.4027,-1113.05 106.731,-1117.88 117.311,-1120.73"/>
<polygon fill="midnightblue" stroke="midnightblue" points="31.6216,-763.623 27.7749,-753.751 24.6259,-763.867 31.6216,-763.623"/>
</g>
<!-- Node21 -->
<g id="node21" class="node"><title>Node21</title>
<g id="a_node21"><a xlink:href="class_i_panel_control.html" target="_top" xlink:title="A basic control to fill a rectangle with a color or gradient. ">
<polygon fill="white" stroke="black" points="124,-1076.5 124,-1095.5 203,-1095.5 203,-1076.5 124,-1076.5"/>
<text text-anchor="middle" x="163.5" y="-1083.5" font-family="Helvetica,sans-Serif" font-size="10.00">IPanelControl</text>
</a>
</g>
</g>
<!-- Node1&#45;&gt;Node21 -->
<g id="edge20" class="edge"><title>Node1&#45;&gt;Node21</title>
<path fill="none" stroke="midnightblue" d="M28.5662,-763.897C32.3613,-827.217 47.291,-1022.5 89,-1067 98.0127,-1076.62 111.199,-1081.62 123.924,-1084.15"/>
<polygon fill="midnightblue" stroke="midnightblue" points="32.047,-763.46 27.9832,-753.676 25.0584,-763.859 32.047,-763.46"/>
</g>
<!-- Node22 -->
<g id="node22" class="node"><title>Node22</title>
<g id="a_node22"><a xlink:href="class_i_popup_menu_control.html" target="_top" xlink:title="A base control for a pop&#45;up menu/drop&#45;down list that stays within the bounds of the IGraphics context...">
<polygon fill="white" stroke="black" points="108.5,-1038.5 108.5,-1057.5 218.5,-1057.5 218.5,-1038.5 108.5,-1038.5"/>
<text text-anchor="middle" x="163.5" y="-1045.5" font-family="Helvetica,sans-Serif" font-size="10.00">IPopupMenuControl</text>
</a>
</g>
</g>
<!-- Node1&#45;&gt;Node22 -->
<g id="edge21" class="edge"><title>Node1&#45;&gt;Node22</title>
<path fill="none" stroke="midnightblue" d="M29.1085,-763.804C34.2271,-821.948 52.0211,-990.495 89,-1029 94.3863,-1034.61 101.194,-1038.64 108.481,-1041.53"/>
<polygon fill="midnightblue" stroke="midnightblue" points="32.5857,-763.386 28.2519,-753.719 25.6108,-763.979 32.5857,-763.386"/>
</g>
<!-- Node23 -->
<g id="node23" class="node"><title>Node23</title>
<g id="a_node23"><a xlink:href="class_i_slider_control_base.html" target="_top" xlink:title="A base class for slider/fader controls, to handle mouse action and Sender. ">
<polygon fill="white" stroke="red" points="111.5,-1000.5 111.5,-1019.5 215.5,-1019.5 215.5,-1000.5 111.5,-1000.5"/>
<text text-anchor="middle" x="163.5" y="-1007.5" font-family="Helvetica,sans-Serif" font-size="10.00">ISliderControlBase</text>
</a>
</g>
</g>
<!-- Node1&#45;&gt;Node23 -->
<g id="edge22" class="edge"><title>Node1&#45;&gt;Node23</title>
<path fill="none" stroke="midnightblue" d="M29.7864,-763.536C36.3162,-816.035 56.6858,-958.396 89,-991 95.1234,-997.178 102.975,-1001.43 111.256,-1004.35"/>
<polygon fill="midnightblue" stroke="midnightblue" points="33.2492,-763.017 28.5733,-753.51 26.2999,-763.858 33.2492,-763.017"/>
</g>
<!-- Node24 -->
<g id="node24" class="node"><title>Node24</title>
<g id="a_node24"><a xlink:href="class_i_s_v_g_control.html" target="_top" xlink:title="A basic control to draw an SVG image to the screen. ">
<polygon fill="white" stroke="black" points="126.5,-962.5 126.5,-981.5 200.5,-981.5 200.5,-962.5 126.5,-962.5"/>
<text text-anchor="middle" x="163.5" y="-969.5" font-family="Helvetica,sans-Serif" font-size="10.00">ISVGControl</text>
</a>
</g>
</g>
<!-- Node1&#45;&gt;Node24 -->
<g id="edge23" class="edge"><title>Node1&#45;&gt;Node24</title>
<path fill="none" stroke="midnightblue" d="M27.2561,-763.656C27.8621,-804.93 35.3259,-901.08 89,-953 98.9467,-962.622 113.099,-967.547 126.333,-970.01"/>
<polygon fill="midnightblue" stroke="midnightblue" points="30.756,-763.545 27.2344,-753.553 23.756,-763.56 30.756,-763.545"/>
</g>
<!-- Node25 -->
<g id="node25" class="node"><title>Node25</title>
<g id="a_node25"><a xlink:href="class_i_switch_control_base.html" target="_top" xlink:title="A base class for switch controls. ">
<polygon fill="white" stroke="red" points="109.5,-924.5 109.5,-943.5 217.5,-943.5 217.5,-924.5 109.5,-924.5"/>
<text text-anchor="middle" x="163.5" y="-931.5" font-family="Helvetica,sans-Serif" font-size="10.00">ISwitchControlBase</text>
</a>
</g>
</g>
<!-- Node1&#45;&gt;Node25 -->
<g id="edge24" class="edge"><title>Node1&#45;&gt;Node25</title>
<path fill="none" stroke="midnightblue" d="M28.8013,-763.962C32.2315,-799.672 44.6118,-874.53 89,-915 94.8437,-920.328 101.986,-924.202 109.496,-927.011"/>
<polygon fill="midnightblue" stroke="midnightblue" points="32.2767,-763.517 27.9728,-753.836 25.3,-764.088 32.2767,-763.517"/>
</g>
<!-- Node26 -->
<g id="node26" class="node"><title>Node26</title>
<g id="a_node26"><a xlink:href="class_i_text_control.html" target="_top" xlink:title="A basic control to display some text. ">
<polygon fill="white" stroke="red" points="127.5,-886.5 127.5,-905.5 199.5,-905.5 199.5,-886.5 127.5,-886.5"/>
<text text-anchor="middle" x="163.5" y="-893.5" font-family="Helvetica,sans-Serif" font-size="10.00">ITextControl</text>
</a>
</g>
</g>
<!-- Node1&#45;&gt;Node26 -->
<g id="edge25" class="edge"><title>Node1&#45;&gt;Node26</title>
<path fill="none" stroke="midnightblue" d="M31.0571,-763.586C37.4023,-792.764 53.4924,-847.375 89,-877 99.7274,-885.95 114.173,-890.746 127.418,-893.293"/>
<polygon fill="midnightblue" stroke="midnightblue" points="34.483,-762.869 29.0821,-753.755 27.6201,-764.248 34.483,-762.869"/>
</g>
<!-- Node27 -->
<g id="node27" class="node"><title>Node27</title>
<g id="a_node27"><a xlink:href="class_i_text_entry_control.html" target="_top" xlink:title="A Text entry widget drawn by IGraphics. ">
<polygon fill="white" stroke="black" points="115,-848.5 115,-867.5 212,-867.5 212,-848.5 115,-848.5"/>
<text text-anchor="middle" x="163.5" y="-855.5" font-family="Helvetica,sans-Serif" font-size="10.00">ITextEntryControl</text>
</a>
</g>
</g>
<!-- Node1&#45;&gt;Node27 -->
<g id="edge26" class="edge"><title>Node1&#45;&gt;Node27</title>
<path fill="none" stroke="midnightblue" d="M34.8837,-763.28C44.1972,-784.992 62.2919,-819.746 89,-839 96.5908,-844.472 105.625,-848.371 114.717,-851.147"/>
<polygon fill="midnightblue" stroke="midnightblue" points="38.0332,-761.734 31.0177,-753.795 31.5509,-764.376 38.0332,-761.734"/>
</g>
<!-- Node28 -->
<g id="node28" class="node"><title>Node28</title>
<g id="a_node28"><a xlink:href="class_i_v_display_control.html" target="_top" xlink:title="IVDisplayControl">
<polygon fill="white" stroke="black" points="116,-810.5 116,-829.5 211,-829.5 211,-810.5 116,-810.5"/>
<text text-anchor="middle" x="163.5" y="-817.5" font-family="Helvetica,sans-Serif" font-size="10.00">IVDisplayControl</text>
</a>
</g>
</g>
<!-- Node1&#45;&gt;Node28 -->
<g id="edge27" class="edge"><title>Node1&#45;&gt;Node28</title>
<path fill="none" stroke="midnightblue" d="M41.8621,-761.311C53.3562,-774.08 70.5573,-790.92 89,-801 97.2112,-805.488 106.521,-808.948 115.689,-811.605"/>
<polygon fill="midnightblue" stroke="midnightblue" points="44.379,-758.872 35.1772,-753.62 39.0956,-763.464 44.379,-758.872"/>
</g>
<!-- Node29 -->
<g id="node29" class="node"><title>Node29</title>
<g id="a_node29"><a xlink:href="class_i_v_group_control.html" target="_top" xlink:title="IVGroupControl">
<polygon fill="white" stroke="black" points="119,-772.5 119,-791.5 208,-791.5 208,-772.5 119,-772.5"/>
<text text-anchor="middle" x="163.5" y="-779.5" font-family="Helvetica,sans-Serif" font-size="10.00">IVGroupControl</text>
</a>
</g>
</g>
<!-- Node1&#45;&gt;Node29 -->
<g id="edge28" class="edge"><title>Node1&#45;&gt;Node29</title>
<path fill="none" stroke="midnightblue" d="M62.8438,-755.228C71.3841,-757.856 80.4999,-760.59 89,-763 100.412,-766.236 112.884,-769.545 124.261,-772.476"/>
<polygon fill="midnightblue" stroke="midnightblue" points="63.742,-751.843 53.1539,-752.219 61.6655,-758.528 63.742,-751.843"/>
</g>
<!-- Node30 -->
<g id="node30" class="node"><title>Node30</title>
<g id="a_node30"><a xlink:href="class_i_v_keyboard_control.html" target="_top" xlink:title="Vectorial keyboard control. ">
<polygon fill="white" stroke="black" points="111.5,-734.5 111.5,-753.5 215.5,-753.5 215.5,-734.5 111.5,-734.5"/>
<text text-anchor="middle" x="163.5" y="-741.5" font-family="Helvetica,sans-Serif" font-size="10.00">IVKeyboardControl</text>
</a>
</g>
</g>
<!-- Node1&#45;&gt;Node30 -->
<g id="edge29" class="edge"><title>Node1&#45;&gt;Node30</title>
<path fill="none" stroke="midnightblue" d="M63.4165,-744C78.1378,-744 95.4467,-744 111.443,-744"/>
<polygon fill="midnightblue" stroke="midnightblue" points="63.2103,-740.5 53.2102,-744 63.2102,-747.5 63.2103,-740.5"/>
</g>
<!-- Node31 -->
<g id="node31" class="node"><title>Node31</title>
<g id="a_node31"><a xlink:href="class_i_v_plot_control.html" target="_top" xlink:title="a vector plot to display functions and waveforms ">
<polygon fill="white" stroke="black" points="124.5,-696.5 124.5,-715.5 202.5,-715.5 202.5,-696.5 124.5,-696.5"/>
<text text-anchor="middle" x="163.5" y="-703.5" font-family="Helvetica,sans-Serif" font-size="10.00">IVPlotControl</text>
</a>
</g>
</g>
<!-- Node1&#45;&gt;Node31 -->
<g id="edge30" class="edge"><title>Node1&#45;&gt;Node31</title>
<path fill="none" stroke="midnightblue" d="M62.8438,-732.772C71.3841,-730.144 80.4999,-727.41 89,-725 100.412,-721.764 112.884,-718.455 124.261,-715.524"/>
<polygon fill="midnightblue" stroke="midnightblue" points="61.6655,-729.472 53.1539,-735.781 63.742,-736.157 61.6655,-729.472"/>
</g>
<!-- Node32 -->
<g id="node32" class="node"><title>Node32</title>
<g id="a_node32"><a xlink:href="class_i_v_scope_control.html" target="_top" xlink:title="Vectorial multichannel capable oscilloscope control. ">
<polygon fill="white" stroke="black" points="93.5,-647 93.5,-677 233.5,-677 233.5,-647 93.5,-647"/>
<text text-anchor="start" x="101.5" y="-665" font-family="Helvetica,sans-Serif" font-size="10.00">IVScopeControl&lt; MAXNC,</text>
<text text-anchor="middle" x="163.5" y="-654" font-family="Helvetica,sans-Serif" font-size="10.00"> MAXBUF, QUEUE_SIZE &gt;</text>
</a>
</g>
</g>
<!-- Node1&#45;&gt;Node32 -->
<g id="edge31" class="edge"><title>Node1&#45;&gt;Node32</title>
<path fill="none" stroke="midnightblue" d="M42.4827,-726.649C54.0887,-714.136 71.1527,-697.641 89,-687 95.3672,-683.204 102.391,-679.885 109.496,-677.013"/>
<polygon fill="midnightblue" stroke="midnightblue" points="39.7792,-724.421 35.6907,-734.195 44.9821,-729.104 39.7792,-724.421"/>
</g>
<!-- Node33 -->
<g id="node33" class="node"><title>Node33</title>
<g id="a_node33"><a xlink:href="class_i_v_track_control_base.html" target="_top" xlink:title="A base class for mult&#45;strip/track controls, such as multi&#45;sliders, meters. ">
<polygon fill="white" stroke="red" points="109.5,-608.5 109.5,-627.5 217.5,-627.5 217.5,-608.5 109.5,-608.5"/>
<text text-anchor="middle" x="163.5" y="-615.5" font-family="Helvetica,sans-Serif" font-size="10.00">IVTrackControlBase</text>
</a>
</g>
</g>
<!-- Node1&#45;&gt;Node33 -->
<g id="edge32" class="edge"><title>Node1&#45;&gt;Node33</title>
<path fill="none" stroke="midnightblue" d="M33.5632,-724.693C42.0804,-700.753 59.891,-660.377 89,-638 94.9762,-633.406 101.935,-629.866 109.142,-627.139"/>
<polygon fill="midnightblue" stroke="midnightblue" points="30.1648,-723.819 30.2967,-734.413 36.8001,-726.049 30.1648,-723.819"/>
</g>
<!-- Node34 -->
<g id="node34" class="node"><title>Node34</title>
<g id="a_node34"><a xlink:href="class_i_v_x_y_pad_control.html" target="_top" xlink:title="IVXYPadControl">
<polygon fill="white" stroke="black" points="119,-570.5 119,-589.5 208,-589.5 208,-570.5 119,-570.5"/>
<text text-anchor="middle" x="163.5" y="-577.5" font-family="Helvetica,sans-Serif" font-size="10.00">IVXYPadControl</text>
</a>
</g>
</g>
<!-- Node1&#45;&gt;Node34 -->
<g id="edge33" class="edge"><title>Node1&#45;&gt;Node34</title>
<path fill="none" stroke="midnightblue" d="M30.2815,-724.021C35.7317,-692.62 50.8127,-631.91 89,-599 97.3864,-591.772 108.183,-587.242 118.904,-584.418"/>
<polygon fill="midnightblue" stroke="midnightblue" points="26.7834,-723.735 28.6843,-734.158 33.6981,-724.825 26.7834,-723.735"/>
</g>
<!-- Node35 -->
<g id="node35" class="node"><title>Node35</title>
<g id="a_node35"><a xlink:href="class_test_animation_control.html" target="_top" xlink:title="Control to test animation. ">
<polygon fill="white" stroke="black" points="104,-532.5 104,-551.5 223,-551.5 223,-532.5 104,-532.5"/>
<text text-anchor="middle" x="163.5" y="-539.5" font-family="Helvetica,sans-Serif" font-size="10.00">TestAnimationControl</text>
</a>
</g>
</g>
<!-- Node1&#45;&gt;Node35 -->
<g id="edge34" class="edge"><title>Node1&#45;&gt;Node35</title>
<path fill="none" stroke="midnightblue" d="M28.2381,-724.234C30.7407,-686.736 41.6512,-605.09 89,-561 93.3405,-556.958 98.4261,-553.75 103.861,-551.208"/>
<polygon fill="midnightblue" stroke="midnightblue" points="24.7355,-724.192 27.7003,-734.363 31.7256,-724.563 24.7355,-724.192"/>
</g>
<!-- Node36 -->
<g id="node36" class="node"><title>Node36</title>
<g id="a_node36"><a xlink:href="class_test_bezier_control.html" target="_top" xlink:title="Control to test drawing bezier curves. ">
<polygon fill="white" stroke="black" points="113.5,-494.5 113.5,-513.5 213.5,-513.5 213.5,-494.5 113.5,-494.5"/>
<text text-anchor="middle" x="163.5" y="-501.5" font-family="Helvetica,sans-Serif" font-size="10.00">TestBezierControl</text>
</a>
</g>
</g>
<!-- Node1&#45;&gt;Node36 -->
<g id="edge35" class="edge"><title>Node1&#45;&gt;Node36</title>
<path fill="none" stroke="midnightblue" d="M26.877,-724.122C26.6661,-681.035 32.5085,-578.459 89,-523 95.6777,-516.444 104.305,-512.064 113.287,-509.156"/>
<polygon fill="midnightblue" stroke="midnightblue" points="23.382,-724.452 27.0532,-734.391 30.381,-724.332 23.382,-724.452"/>
</g>
<!-- Node37 -->
<g id="node37" class="node"><title>Node37</title>
<g id="a_node37"><a xlink:href="class_test_color_control.html" target="_top" xlink:title="Control to colors. ">
<polygon fill="white" stroke="black" points="116,-456.5 116,-475.5 211,-475.5 211,-456.5 116,-456.5"/>
<text text-anchor="middle" x="163.5" y="-463.5" font-family="Helvetica,sans-Serif" font-size="10.00">TestColorControl</text>
</a>
</g>
</g>
<!-- Node1&#45;&gt;Node37 -->
<g id="edge36" class="edge"><title>Node1&#45;&gt;Node37</title>
<path fill="none" stroke="midnightblue" d="M29.5687,-724.236C35.6587,-669.799 55.2457,-519.43 89,-485 96.1968,-477.659 105.831,-473.028 115.75,-470.136"/>
<polygon fill="midnightblue" stroke="midnightblue" points="26.0738,-724.001 28.4738,-734.32 33.0329,-724.756 26.0738,-724.001"/>
</g>
<!-- Node38 -->
<g id="node38" class="node"><title>Node38</title>
<g id="a_node38"><a xlink:href="class_test_cursor_control.html" target="_top" xlink:title="Control to test changing the platform cursor. ">
<polygon fill="white" stroke="black" points="113,-418.5 113,-437.5 214,-437.5 214,-418.5 113,-418.5"/>
<text text-anchor="middle" x="163.5" y="-425.5" font-family="Helvetica,sans-Serif" font-size="10.00">TestCursorControl</text>
</a>
</g>
</g>
<!-- Node1&#45;&gt;Node38 -->
<g id="edge37" class="edge"><title>Node1&#45;&gt;Node38</title>
<path fill="none" stroke="midnightblue" d="M28.9227,-724.171C33.6117,-664.365 50.5293,-487.395 89,-447 95.4536,-440.224 103.981,-435.745 112.936,-432.81"/>
<polygon fill="midnightblue" stroke="midnightblue" points="25.4061,-724.26 28.1452,-734.495 32.3864,-724.786 25.4061,-724.26"/>
</g>
<!-- Node39 -->
<g id="node39" class="node"><title>Node39</title>
<g id="a_node39"><a xlink:href="class_test_draw_context_control.html" target="_top" xlink:title="Control to test obtaining a drawing API (NanoVG, LICE, Cairo, AGG etc) context and using that API wit...">
<polygon fill="white" stroke="black" points="98,-380.5 98,-399.5 229,-399.5 229,-380.5 98,-380.5"/>
<text text-anchor="middle" x="163.5" y="-387.5" font-family="Helvetica,sans-Serif" font-size="10.00">TestDrawContextControl</text>
</a>
</g>
</g>
<!-- Node1&#45;&gt;Node39 -->
<g id="edge38" class="edge"><title>Node1&#45;&gt;Node39</title>
<path fill="none" stroke="midnightblue" d="M28.4122,-724.206C31.7974,-659.456 45.7625,-455.441 89,-409 92.5924,-405.141 96.8566,-402.025 101.495,-399.513"/>
<polygon fill="midnightblue" stroke="midnightblue" points="24.9114,-724.138 27.9128,-734.299 31.9028,-724.484 24.9114,-724.138"/>
</g>
<!-- Node40 -->
<g id="node40" class="node"><title>Node40</title>
<g id="a_node40"><a xlink:href="class_test_drop_shadow_control.html" target="_top" xlink:title="Control to test layer drop shadows. ">
<polygon fill="white" stroke="black" points="98,-342.5 98,-361.5 229,-361.5 229,-342.5 98,-342.5"/>
<text text-anchor="middle" x="163.5" y="-349.5" font-family="Helvetica,sans-Serif" font-size="10.00">TestDropShadowControl</text>
</a>
</g>
</g>
<!-- Node1&#45;&gt;Node40 -->
<g id="edge39" class="edge"><title>Node1&#45;&gt;Node40</title>
<path fill="none" stroke="midnightblue" d="M28.004,-724.253C30.1787,-654.859 40.9683,-423.538 89,-371 92.4683,-367.206 96.5857,-364.128 101.074,-361.634"/>
<polygon fill="midnightblue" stroke="midnightblue" points="24.5047,-724.182 27.7159,-734.279 31.5018,-724.383 24.5047,-724.182"/>
</g>
<!-- Node41 -->
<g id="node41" class="node"><title>Node41</title>
<g id="a_node41"><a xlink:href="class_test_font_control.html" target="_top" xlink:title="Control to test drawing fonts. ">
<polygon fill="white" stroke="black" points="118,-304.5 118,-323.5 209,-323.5 209,-304.5 118,-304.5"/>
<text text-anchor="middle" x="163.5" y="-311.5" font-family="Helvetica,sans-Serif" font-size="10.00">TestFontControl</text>
</a>
</g>
</g>
<!-- Node1&#45;&gt;Node41 -->
<g id="edge40" class="edge"><title>Node1&#45;&gt;Node41</title>
<path fill="none" stroke="midnightblue" d="M27.6723,-724.197C28.7234,-650.265 36.178,-391.648 89,-333 96.4974,-324.676 107.119,-319.785 117.964,-316.965"/>
<polygon fill="midnightblue" stroke="midnightblue" points="24.1701,-724.377 27.5526,-734.418 31.1696,-724.459 24.1701,-724.377"/>
</g>
<!-- Node42 -->
<g id="node42" class="node"><title>Node42</title>
<g id="a_node42"><a xlink:href="class_test_g_l_control.html" target="_top" xlink:title="TestGLControl">
<polygon fill="white" stroke="black" points="122,-266.5 122,-285.5 205,-285.5 205,-266.5 122,-266.5"/>
<text text-anchor="middle" x="163.5" y="-273.5" font-family="Helvetica,sans-Serif" font-size="10.00">TestGLControl</text>
</a>
</g>
</g>
<!-- Node1&#45;&gt;Node42 -->
<g id="edge41" class="edge"><title>Node1&#45;&gt;Node42</title>
<path fill="none" stroke="midnightblue" d="M27.394,-723.907C27.3958,-645.294 31.4282,-359.725 89,-295 97.3216,-285.645 109.589,-280.616 121.727,-277.992"/>
<polygon fill="midnightblue" stroke="midnightblue" points="23.8949,-724.328 27.4189,-734.32 30.8949,-724.311 23.8949,-724.328"/>
</g>
<!-- Node43 -->
<g id="node43" class="node"><title>Node43</title>
<g id="a_node43"><a xlink:href="class_test_image_control.html" target="_top" xlink:title="Control to test drawing bitmaps. ">
<polygon fill="white" stroke="black" points="113.5,-228.5 113.5,-247.5 213.5,-247.5 213.5,-228.5 113.5,-228.5"/>
<text text-anchor="middle" x="163.5" y="-235.5" font-family="Helvetica,sans-Serif" font-size="10.00">TestImageControl</text>
</a>
</g>
</g>
<!-- Node1&#45;&gt;Node43 -->
<g id="edge42" class="edge"><title>Node1&#45;&gt;Node43</title>
<path fill="none" stroke="midnightblue" d="M27.1568,-724.078C26.1511,-641.608 26.5517,-327.954 89,-257 95.3566,-249.778 104.065,-245.129 113.266,-242.174"/>
<polygon fill="midnightblue" stroke="midnightblue" points="23.6606,-724.374 27.3049,-734.322 30.6599,-724.272 23.6606,-724.374"/>
</g>
<!-- Node44 -->
<g id="node44" class="node"><title>Node44</title>
<g id="a_node44"><a xlink:href="class_test_keyboard_control.html" target="_top" xlink:title="Control to test keyboard input. ">
<polygon fill="white" stroke="black" points="106.5,-190.5 106.5,-209.5 220.5,-209.5 220.5,-190.5 106.5,-190.5"/>
<text text-anchor="middle" x="163.5" y="-197.5" font-family="Helvetica,sans-Serif" font-size="10.00">TestKeyboardControl</text>
</a>
</g>
</g>
<!-- Node1&#45;&gt;Node44 -->
<g id="edge43" class="edge"><title>Node1&#45;&gt;Node44</title>
<path fill="none" stroke="midnightblue" d="M28.502,-724.338C33.2983,-633.577 55.0883,-257.882 89,-219 93.678,-213.636 99.6529,-209.69 106.169,-206.802"/>
<polygon fill="midnightblue" stroke="midnightblue" points="25.0044,-724.203 27.9802,-734.371 31.9949,-724.566 25.0044,-724.203"/>
</g>
<!-- Node45 -->
<g id="node45" class="node"><title>Node45</title>
<g id="a_node45"><a xlink:href="class_test_m_p_s_control.html" target="_top" xlink:title="TestMPSControl">
<polygon fill="white" stroke="black" points="118,-152.5 118,-171.5 209,-171.5 209,-152.5 118,-152.5"/>
<text text-anchor="middle" x="163.5" y="-159.5" font-family="Helvetica,sans-Serif" font-size="10.00">TestMPSControl</text>
</a>
</g>
</g>
<!-- Node1&#45;&gt;Node45 -->
<g id="edge44" class="edge"><title>Node1&#45;&gt;Node45</title>
<path fill="none" stroke="midnightblue" d="M28.3482,-724.121C32.5817,-628.978 52.6778,-222.976 89,-181 96.3306,-172.528 106.896,-167.588 117.74,-164.767"/>
<polygon fill="midnightblue" stroke="midnightblue" points="24.8505,-723.995 27.9106,-734.138 31.8439,-724.3 24.8505,-723.995"/>
</g>
<!-- Node46 -->
<g id="node46" class="node"><title>Node46</title>
<g id="a_node46"><a xlink:href="class_test_shadow_gradient_control.html" target="_top" xlink:title="Control to test drawing shadows with gradients. ">
<polygon fill="white" stroke="black" points="89,-114.5 89,-133.5 238,-133.5 238,-114.5 89,-114.5"/>
<text text-anchor="middle" x="163.5" y="-121.5" font-family="Helvetica,sans-Serif" font-size="10.00">TestShadowGradientControl</text>
</a>
</g>
</g>
<!-- Node1&#45;&gt;Node46 -->
<g id="edge45" class="edge"><title>Node1&#45;&gt;Node46</title>
<path fill="none" stroke="midnightblue" d="M28.1948,-724.363C31.8532,-625.821 50.2037,-188.146 89,-143 92.2642,-139.202 96.1789,-136.112 100.479,-133.605"/>
<polygon fill="midnightblue" stroke="midnightblue" points="24.6946,-724.307 27.8289,-734.428 31.69,-724.562 24.6946,-724.307"/>
</g>
<!-- Node47 -->
<g id="node47" class="node"><title>Node47</title>
<g id="a_node47"><a xlink:href="class_test_size_control.html" target="_top" xlink:title="Control to display the size of a region. ">
<polygon fill="white" stroke="black" points="118.5,-76.5 118.5,-95.5 208.5,-95.5 208.5,-76.5 118.5,-76.5"/>
<text text-anchor="middle" x="163.5" y="-83.5" font-family="Helvetica,sans-Serif" font-size="10.00">TestSizeControl</text>
</a>
</g>
</g>
<!-- Node1&#45;&gt;Node47 -->
<g id="edge46" class="edge"><title>Node1&#45;&gt;Node47</title>
<path fill="none" stroke="midnightblue" d="M28.0769,-724.1C31.2322,-621.293 47.7913,-153.246 89,-105 96.4472,-96.281 107.321,-91.2939 118.433,-88.509"/>
<polygon fill="midnightblue" stroke="midnightblue" points="24.572,-724.214 27.7712,-734.314 31.5689,-724.423 24.572,-724.214"/>
</g>
<!-- Node48 -->
<g id="node48" class="node"><title>Node48</title>
<g id="a_node48"><a xlink:href="class_test_s_v_g_control.html" target="_top" xlink:title="Control to test drawing SVGs. ">
<polygon fill="white" stroke="black" points="118,-38.5 118,-57.5 209,-57.5 209,-38.5 118,-38.5"/>
<text text-anchor="middle" x="163.5" y="-45.5" font-family="Helvetica,sans-Serif" font-size="10.00">TestSVGControl</text>
</a>
</g>
</g>
<!-- Node1&#45;&gt;Node48 -->
<g id="edge47" class="edge"><title>Node1&#45;&gt;Node48</title>
<path fill="none" stroke="midnightblue" d="M27.9677,-723.932C30.6337,-617.125 45.3633,-118.367 89,-67 96.2531,-58.462 106.793,-53.4992 117.637,-50.6786"/>
<polygon fill="midnightblue" stroke="midnightblue" points="24.4611,-724.165 27.7179,-734.247 31.4591,-724.334 24.4611,-724.165"/>
</g>
<!-- Node49 -->
<g id="node49" class="node"><title>Node49</title>
<g id="a_node49"><a xlink:href="class_test_text_control.html" target="_top" xlink:title="Control to test drawing text. ">
<polygon fill="white" stroke="black" points="119,-0.5 119,-19.5 208,-19.5 208,-0.5 119,-0.5"/>
<text text-anchor="middle" x="163.5" y="-7.5" font-family="Helvetica,sans-Serif" font-size="10.00">TestTextControl</text>
</a>
</g>
</g>
<!-- Node1&#45;&gt;Node49 -->
<g id="edge48" class="edge"><title>Node1&#45;&gt;Node49</title>
<path fill="none" stroke="midnightblue" d="M27.8601,-724.201C30.031,-614.434 42.8715,-83.5642 89,-29 96.4879,-20.1427 107.513,-15.1297 118.759,-12.3646"/>
<polygon fill="midnightblue" stroke="midnightblue" points="24.3555,-724.414 27.6642,-734.479 31.3542,-724.548 24.3555,-724.414"/>
</g>
<!-- Node5 -->
<g id="node5" class="node"><title>Node5</title>
<g id="a_node5"><a xlink:href="class_i_b_button_control.html" target="_top" xlink:title="A bitmap button/momentary switch control. ">
<polygon fill="white" stroke="black" points="287,-1399.5 287,-1418.5 379,-1418.5 379,-1399.5 287,-1399.5"/>
<text text-anchor="middle" x="333" y="-1406.5" font-family="Helvetica,sans-Serif" font-size="10.00">IBButtonControl</text>
</a>
</g>
</g>
<!-- Node4&#45;&gt;Node5 -->
<g id="edge4" class="edge"><title>Node4&#45;&gt;Node5</title>
<path fill="none" stroke="midnightblue" d="M228.847,-1397.3C248.202,-1399.49 269.02,-1401.86 286.85,-1403.88"/>
<polygon fill="midnightblue" stroke="midnightblue" points="229.213,-1393.82 218.882,-1396.17 228.424,-1400.77 229.213,-1393.82"/>
</g>
<!-- Node6 -->
<g id="node6" class="node"><title>Node6</title>
<g id="a_node6"><a xlink:href="class_i_v_button_control.html" target="_top" xlink:title="A vector button/momentary switch control. ">
<polygon fill="white" stroke="black" points="287,-1361.5 287,-1380.5 379,-1380.5 379,-1361.5 287,-1361.5"/>
<text text-anchor="middle" x="333" y="-1368.5" font-family="Helvetica,sans-Serif" font-size="10.00">IVButtonControl</text>
</a>
</g>
</g>
<!-- Node4&#45;&gt;Node6 -->
<g id="edge5" class="edge"><title>Node4&#45;&gt;Node6</title>
<path fill="none" stroke="midnightblue" d="M228.847,-1382.7C248.202,-1380.51 269.02,-1378.14 286.85,-1376.12"/>
<polygon fill="midnightblue" stroke="midnightblue" points="228.424,-1379.23 218.882,-1383.83 229.213,-1386.18 228.424,-1379.23"/>
</g>
<!-- Node10 -->
<g id="node10" class="node"><title>Node10</title>
<g id="a_node10"><a xlink:href="class_test_dir_browse_control.html" target="_top" xlink:title="Control to test IDirBrowseControlBase. ">
<polygon fill="white" stroke="black" points="274,-1266.5 274,-1285.5 392,-1285.5 392,-1266.5 274,-1266.5"/>
<text text-anchor="middle" x="333" y="-1273.5" font-family="Helvetica,sans-Serif" font-size="10.00">TestDirBrowseControl</text>
</a>
</g>
</g>
<!-- Node9&#45;&gt;Node10 -->
<g id="edge9" class="edge"><title>Node9&#45;&gt;Node10</title>
<path fill="none" stroke="midnightblue" d="M236.739,-1276C249.179,-1276 261.965,-1276 273.97,-1276"/>
<polygon fill="midnightblue" stroke="midnightblue" points="236.395,-1272.5 226.395,-1276 236.395,-1279.5 236.395,-1272.5"/>
</g>
<!-- Node14 -->
<g id="node14" class="node"><title>Node14</title>
<g id="a_node14"><a xlink:href="class_i_b_knob_control.html" target="_top" xlink:title="A bitmap knob/dial control that draws a frame from a stacked bitmap. ">
<polygon fill="white" stroke="red" points="291,-1228.5 291,-1247.5 375,-1247.5 375,-1228.5 291,-1228.5"/>
<text text-anchor="middle" x="333" y="-1235.5" font-family="Helvetica,sans-Serif" font-size="10.00">IBKnobControl</text>
</a>
</g>
</g>
<!-- Node13&#45;&gt;Node14 -->
<g id="edge13" class="edge"><title>Node13&#45;&gt;Node14</title>
<path fill="none" stroke="midnightblue" d="M223.858,-1174.18C228.787,-1176.13 233.572,-1178.39 238,-1181 258.041,-1192.81 254.345,-1206.55 274,-1219 279.998,-1222.8 286.829,-1225.91 293.647,-1228.43"/>
<polygon fill="midnightblue" stroke="midnightblue" points="224.848,-1170.82 214.254,-1170.8 222.523,-1177.43 224.848,-1170.82"/>
</g>
<!-- Node15 -->
<g id="node15" class="node"><title>Node15</title>
<g id="a_node15"><a xlink:href="class_i_s_v_g_knob.html" target="_top" xlink:title="A vector knob/dial control which rotates an SVG image. ">
<polygon fill="white" stroke="black" points="301,-1190.5 301,-1209.5 365,-1209.5 365,-1190.5 301,-1190.5"/>
<text text-anchor="middle" x="333" y="-1197.5" font-family="Helvetica,sans-Serif" font-size="10.00">ISVGKnob</text>
</a>
</g>
</g>
<!-- Node13&#45;&gt;Node15 -->
<g id="edge14" class="edge"><title>Node13&#45;&gt;Node15</title>
<path fill="none" stroke="midnightblue" d="M216.668,-1173.84C244.275,-1180.1 277.246,-1187.58 300.85,-1192.93"/>
<polygon fill="midnightblue" stroke="midnightblue" points="217.294,-1170.39 206.767,-1171.59 215.745,-1177.21 217.294,-1170.39"/>
</g>
<!-- Node16 -->
<g id="node16" class="node"><title>Node16</title>
<g id="a_node16"><a xlink:href="class_i_v_knob_control.html" target="_top" xlink:title="A vector knob control drawn using graphics primitves. ">
<polygon fill="white" stroke="black" points="291,-1152.5 291,-1171.5 375,-1171.5 375,-1152.5 291,-1152.5"/>
<text text-anchor="middle" x="333" y="-1159.5" font-family="Helvetica,sans-Serif" font-size="10.00">IVKnobControl</text>
</a>
</g>
</g>
<!-- Node13&#45;&gt;Node16 -->
<g id="edge15" class="edge"><title>Node13&#45;&gt;Node16</title>
<path fill="none" stroke="midnightblue" d="M224.542,-1162C246.526,-1162 270.886,-1162 290.846,-1162"/>
<polygon fill="midnightblue" stroke="midnightblue" points="224.302,-1158.5 214.302,-1162 224.302,-1165.5 224.302,-1158.5"/>
</g>
<!-- Node17 -->
<g id="node17" class="node"><title>Node17</title>
<g id="a_node17"><a xlink:href="class_test_arc_control.html" target="_top" xlink:title="Control to test drawing arcs. ">
<polygon fill="white" stroke="black" points="290,-1114.5 290,-1133.5 376,-1133.5 376,-1114.5 290,-1114.5"/>
<text text-anchor="middle" x="333" y="-1121.5" font-family="Helvetica,sans-Serif" font-size="10.00">TestArcControl</text>
</a>
</g>
</g>
<!-- Node13&#45;&gt;Node17 -->
<g id="edge16" class="edge"><title>Node13&#45;&gt;Node17</title>
<path fill="none" stroke="midnightblue" d="M216.62,-1150.18C240.235,-1144.82 267.782,-1138.57 290.037,-1133.52"/>
<polygon fill="midnightblue" stroke="midnightblue" points="215.745,-1146.79 206.767,-1152.41 217.294,-1153.61 215.745,-1146.79"/>
</g>
<!-- Node18 -->
<g id="node18" class="node"><title>Node18</title>
<g id="a_node18"><a xlink:href="class_test_blend_control.html" target="_top" xlink:title="Control to test blend methods. ">
<polygon fill="white" stroke="black" points="284.5,-1076.5 284.5,-1095.5 381.5,-1095.5 381.5,-1076.5 284.5,-1076.5"/>
<text text-anchor="middle" x="333" y="-1083.5" font-family="Helvetica,sans-Serif" font-size="10.00">TestBlendControl</text>
</a>
</g>
</g>
<!-- Node13&#45;&gt;Node18 -->
<g id="edge17" class="edge"><title>Node13&#45;&gt;Node18</title>
<path fill="none" stroke="midnightblue" d="M223.858,-1149.82C228.787,-1147.87 233.572,-1145.61 238,-1143 258.041,-1131.19 254.345,-1117.45 274,-1105 279.998,-1101.2 286.829,-1098.09 293.647,-1095.57"/>
<polygon fill="midnightblue" stroke="midnightblue" points="222.523,-1146.57 214.254,-1153.2 224.848,-1153.18 222.523,-1146.57"/>
</g>
<!-- Node19 -->
<g id="node19" class="node"><title>Node19</title>
<g id="a_node19"><a xlink:href="class_test_gradient_control.html" target="_top" xlink:title="Control to test drawing gradients with path based drawing backends. ">
<polygon fill="white" stroke="black" points="277.5,-1038.5 277.5,-1057.5 388.5,-1057.5 388.5,-1038.5 277.5,-1038.5"/>
<text text-anchor="middle" x="333" y="-1045.5" font-family="Helvetica,sans-Serif" font-size="10.00">TestGradientControl</text>
</a>
</g>
</g>
<!-- Node13&#45;&gt;Node19 -->
<g id="edge18" class="edge"><title>Node13&#45;&gt;Node19</title>
<path fill="none" stroke="midnightblue" d="M223.586,-1151.84C228.773,-1149.48 233.682,-1146.57 238,-1143 266.809,-1119.19 245.962,-1091.71 274,-1067 278.372,-1063.15 283.542,-1060.07 288.966,-1057.62"/>
<polygon fill="midnightblue" stroke="midnightblue" points="222.082,-1148.67 214.02,-1155.55 224.61,-1155.2 222.082,-1148.67"/>
</g>
</g>
</svg>
