<?xml version="1.0" encoding="UTF-8" standalone="no"?>
<!DOCTYPE svg PUBLIC "-//W3C//DTD SVG 1.1//EN"
 "http://www.w3.org/Graphics/SVG/1.1/DTD/svg11.dtd">
<!-- Generated by graphviz version 2.38.0 (20140413.2041)
 -->
<!-- Title: ITextControl Pages: 1 -->
<svg width="315pt" height="256pt"
 viewBox="0.00 0.00 315.00 256.00" xmlns="http://www.w3.org/2000/svg" xmlns:xlink="http://www.w3.org/1999/xlink">
<g id="graph0" class="graph" transform="scale(1 1) rotate(0) translate(4 252)">
<title>ITextControl</title>
<polygon fill="white" stroke="none" points="-4,4 -4,-252 311,-252 311,4 -4,4"/>
<!-- Node1 -->
<g id="node1" class="node"><title>Node1</title>
<polygon fill="#bfbfbf" stroke="black" points="89,-114.5 89,-133.5 161,-133.5 161,-114.5 89,-114.5"/>
<text text-anchor="middle" x="125" y="-121.5" font-family="Helvetica,sans-Serif" font-size="10.00">ITextControl</text>
</g>
<!-- Node3 -->
<g id="node3" class="node"><title>Node3</title>
<g id="a_node3"><a xlink:href="class_i_b_text_control.html" target="_top" xlink:title="A control to display text using a monospace bitmap font. ">
<polygon fill="white" stroke="black" points="212.5,-228.5 212.5,-247.5 291.5,-247.5 291.5,-228.5 212.5,-228.5"/>
<text text-anchor="middle" x="252" y="-235.5" font-family="Helvetica,sans-Serif" font-size="10.00">IBTextControl</text>
</a>
</g>
</g>
<!-- Node1&#45;&gt;Node3 -->
<g id="edge2" class="edge"><title>Node1&#45;&gt;Node3</title>
<path fill="none" stroke="midnightblue" d="M135.448,-142.569C147.169,-163.866 169.067,-198.477 197,-219 202.206,-222.825 208.249,-225.932 214.37,-228.44"/>
<polygon fill="midnightblue" stroke="midnightblue" points="138.445,-140.75 130.661,-133.562 132.263,-144.035 138.445,-140.75"/>
</g>
<!-- Node4 -->
<g id="node4" class="node"><title>Node4</title>
<g id="a_node4"><a xlink:href="class_i_caption_control.html" target="_top" xlink:title="A control to display the textual representation of a parameter. ">
<polygon fill="white" stroke="black" points="207,-190.5 207,-209.5 297,-209.5 297,-190.5 207,-190.5"/>
<text text-anchor="middle" x="252" y="-197.5" font-family="Helvetica,sans-Serif" font-size="10.00">ICaptionControl</text>
</a>
</g>
</g>
<!-- Node1&#45;&gt;Node4 -->
<g id="edge3" class="edge"><title>Node1&#45;&gt;Node4</title>
<path fill="none" stroke="midnightblue" d="M143.428,-140.809C157.101,-153.266 177.092,-169.933 197,-181 203.602,-184.67 211.043,-187.836 218.243,-190.473"/>
<polygon fill="midnightblue" stroke="midnightblue" points="145.488,-137.945 135.788,-133.685 140.714,-143.064 145.488,-137.945"/>
</g>
<!-- Node5 -->
<g id="node5" class="node"><title>Node5</title>
<g id="a_node5"><a xlink:href="class_i_r_t_text_control.html" target="_top" xlink:title="A control to display some text in the UI, driven by values in the RT audio thread. ">
<polygon fill="white" stroke="black" points="197,-152.5 197,-171.5 307,-171.5 307,-152.5 197,-152.5"/>
<text text-anchor="middle" x="252" y="-159.5" font-family="Helvetica,sans-Serif" font-size="10.00">IRTTextControl&lt; T &gt;</text>
</a>
</g>
</g>
<!-- Node1&#45;&gt;Node5 -->
<g id="edge4" class="edge"><title>Node1&#45;&gt;Node5</title>
<path fill="none" stroke="midnightblue" d="M167.235,-136.535C184.239,-141.705 203.629,-147.599 219.467,-152.414"/>
<polygon fill="midnightblue" stroke="midnightblue" points="168.128,-133.149 157.543,-133.589 166.092,-139.846 168.128,-133.149"/>
</g>
<!-- Node6 -->
<g id="node6" class="node"><title>Node6</title>
<g id="a_node6"><a xlink:href="class_i_text_toggle_control.html" target="_top" xlink:title="ITextToggleControl">
<polygon fill="white" stroke="black" points="201,-114.5 201,-133.5 303,-133.5 303,-114.5 201,-114.5"/>
<text text-anchor="middle" x="252" y="-121.5" font-family="Helvetica,sans-Serif" font-size="10.00">ITextToggleControl</text>
</a>
</g>
</g>
<!-- Node1&#45;&gt;Node6 -->
<g id="edge5" class="edge"><title>Node1&#45;&gt;Node6</title>
<path fill="none" stroke="midnightblue" d="M171.258,-124C180.827,-124 190.981,-124 200.722,-124"/>
<polygon fill="midnightblue" stroke="midnightblue" points="171.152,-120.5 161.152,-124 171.152,-127.5 171.152,-120.5"/>
</g>
<!-- Node7 -->
<g id="node7" class="node"><title>Node7</title>
<g id="a_node7"><a xlink:href="class_i_u_r_l_control.html" target="_top" xlink:title="IURLControl">
<polygon fill="white" stroke="black" points="216,-76.5 216,-95.5 288,-95.5 288,-76.5 216,-76.5"/>
<text text-anchor="middle" x="252" y="-83.5" font-family="Helvetica,sans-Serif" font-size="10.00">IURLControl</text>
</a>
</g>
</g>
<!-- Node1&#45;&gt;Node7 -->
<g id="edge6" class="edge"><title>Node1&#45;&gt;Node7</title>
<path fill="none" stroke="midnightblue" d="M167.235,-111.465C184.239,-106.295 203.629,-100.401 219.467,-95.5859"/>
<polygon fill="midnightblue" stroke="midnightblue" points="166.092,-108.154 157.543,-114.411 168.128,-114.851 166.092,-108.154"/>
</g>
<!-- Node8 -->
<g id="node8" class="node"><title>Node8</title>
<g id="a_node8"><a xlink:href="class_i_v_label_control.html" target="_top" xlink:title="IVLabelControl">
<polygon fill="white" stroke="black" points="209,-38.5 209,-57.5 295,-57.5 295,-38.5 209,-38.5"/>
<text text-anchor="middle" x="252" y="-45.5" font-family="Helvetica,sans-Serif" font-size="10.00">IVLabelControl</text>
</a>
</g>
</g>
<!-- Node1&#45;&gt;Node8 -->
<g id="edge7" class="edge"><title>Node1&#45;&gt;Node8</title>
<path fill="none" stroke="midnightblue" d="M143.428,-107.191C157.101,-94.7345 177.092,-78.0674 197,-67 203.602,-63.3299 211.043,-60.1644 218.243,-57.5273"/>
<polygon fill="midnightblue" stroke="midnightblue" points="140.714,-104.936 135.788,-114.315 145.488,-110.055 140.714,-104.936"/>
</g>
<!-- Node9 -->
<g id="node9" class="node"><title>Node9</title>
<g id="a_node9"><a xlink:href="class_place_holder.html" target="_top" xlink:title="A control to use as a placeholder during development. ">
<polygon fill="white" stroke="black" points="215,-0.5 215,-19.5 289,-19.5 289,-0.5 215,-0.5"/>
<text text-anchor="middle" x="252" y="-7.5" font-family="Helvetica,sans-Serif" font-size="10.00">PlaceHolder</text>
</a>
</g>
</g>
<!-- Node1&#45;&gt;Node9 -->
<g id="edge8" class="edge"><title>Node1&#45;&gt;Node9</title>
<path fill="none" stroke="midnightblue" d="M135.448,-105.431C147.169,-84.1338 169.067,-49.5229 197,-29 202.366,-25.0574 208.622,-21.8771 214.935,-19.3301"/>
<polygon fill="midnightblue" stroke="midnightblue" points="132.263,-103.965 130.661,-114.438 138.445,-107.25 132.263,-103.965"/>
</g>
<!-- Node2 -->
<g id="node2" class="node"><title>Node2</title>
<g id="a_node2"><a xlink:href="class_i_control.html" target="_top" xlink:title="The lowest level base class of an IGraphics control. ">
<polygon fill="white" stroke="black" points="0,-114.5 0,-133.5 53,-133.5 53,-114.5 0,-114.5"/>
<text text-anchor="middle" x="26.5" y="-121.5" font-family="Helvetica,sans-Serif" font-size="10.00">IControl</text>
</a>
</g>
</g>
<!-- Node2&#45;&gt;Node1 -->
<g id="edge1" class="edge"><title>Node2&#45;&gt;Node1</title>
<path fill="none" stroke="midnightblue" d="M63.3032,-124C71.6426,-124 80.5145,-124 88.8264,-124"/>
<polygon fill="midnightblue" stroke="midnightblue" points="63.1069,-120.5 53.1069,-124 63.1068,-127.5 63.1069,-120.5"/>
</g>
</g>
</svg>
