<?xml version="1.0" encoding="UTF-8" standalone="no"?>
<!DOCTYPE svg PUBLIC "-//W3C//DTD SVG 1.1//EN"
 "http://www.w3.org/Graphics/SVG/1.1/DTD/svg11.dtd">
<!-- Generated by graphviz version 2.38.0 (20140413.2041)
 -->
<!-- Title: ISwitchControlBase Pages: 1 -->
<svg width="368pt" height="196pt"
 viewBox="0.00 0.00 367.50 196.00" xmlns="http://www.w3.org/2000/svg" xmlns:xlink="http://www.w3.org/1999/xlink">
<g id="graph0" class="graph" transform="scale(1 1) rotate(0) translate(4 192)">
<title>ISwitchControlBase</title>
<polygon fill="white" stroke="none" points="-4,4 -4,-192 363.5,-192 363.5,4 -4,4"/>
<!-- Node1 -->
<g id="node1" class="node"><title>Node1</title>
<polygon fill="#bfbfbf" stroke="black" points="123,-112.5 123,-131.5 231,-131.5 231,-112.5 123,-112.5"/>
<text text-anchor="middle" x="177" y="-119.5" font-family="Helvetica,sans-Serif" font-size="10.00">ISwitchControlBase</text>
</g>
<!-- Node3 -->
<g id="node3" class="node"><title>Node3</title>
<g id="a_node3"><a xlink:href="class_i_b_switch_control.html" target="_top" xlink:title="A bitmap switch control. ">
<polygon fill="white" stroke="black" points="22.5,-56.5 22.5,-75.5 113.5,-75.5 113.5,-56.5 22.5,-56.5"/>
<text text-anchor="middle" x="68" y="-63.5" font-family="Helvetica,sans-Serif" font-size="10.00">IBSwitchControl</text>
</a>
</g>
</g>
<!-- Node1&#45;&gt;Node3 -->
<g id="edge2" class="edge"><title>Node1&#45;&gt;Node3</title>
<path fill="none" stroke="midnightblue" d="M150.481,-107.862C130.27,-97.8492 103.013,-84.3458 85.4693,-75.6545"/>
<polygon fill="midnightblue" stroke="midnightblue" points="148.973,-111.021 159.487,-112.324 152.08,-104.748 148.973,-111.021"/>
</g>
<!-- Node4 -->
<g id="node4" class="node"><title>Node4</title>
<g id="a_node4"><a xlink:href="class_i_v_switch_control.html" target="_top" xlink:title="A vector switch control. ">
<polygon fill="white" stroke="black" points="131.5,-56.5 131.5,-75.5 222.5,-75.5 222.5,-56.5 131.5,-56.5"/>
<text text-anchor="middle" x="177" y="-63.5" font-family="Helvetica,sans-Serif" font-size="10.00">IVSwitchControl</text>
</a>
</g>
</g>
<!-- Node1&#45;&gt;Node4 -->
<g id="edge3" class="edge"><title>Node1&#45;&gt;Node4</title>
<path fill="none" stroke="midnightblue" d="M177,-101.805C177,-92.9102 177,-82.7798 177,-75.7511"/>
<polygon fill="midnightblue" stroke="midnightblue" points="173.5,-102.083 177,-112.083 180.5,-102.083 173.5,-102.083"/>
</g>
<!-- Node7 -->
<g id="node7" class="node"><title>Node7</title>
<g id="a_node7"><a xlink:href="class_i_v_tab_switch_control.html" target="_top" xlink:title="A vector &quot;tab&quot; multi switch control. ">
<polygon fill="white" stroke="black" points="243.5,-56.5 243.5,-75.5 350.5,-75.5 350.5,-56.5 243.5,-56.5"/>
<text text-anchor="middle" x="297" y="-63.5" font-family="Helvetica,sans-Serif" font-size="10.00">IVTabSwitchControl</text>
</a>
</g>
</g>
<!-- Node1&#45;&gt;Node7 -->
<g id="edge6" class="edge"><title>Node1&#45;&gt;Node7</title>
<path fill="none" stroke="midnightblue" d="M205.373,-108.232C227.82,-98.1312 258.535,-84.3091 278.075,-75.5164"/>
<polygon fill="midnightblue" stroke="midnightblue" points="203.697,-105.148 196.014,-112.444 206.57,-111.532 203.697,-105.148"/>
</g>
<!-- Node2 -->
<g id="node2" class="node"><title>Node2</title>
<g id="a_node2"><a xlink:href="class_i_control.html" target="_top" xlink:title="The lowest level base class of an IGraphics control. ">
<polygon fill="white" stroke="black" points="150.5,-168.5 150.5,-187.5 203.5,-187.5 203.5,-168.5 150.5,-168.5"/>
<text text-anchor="middle" x="177" y="-175.5" font-family="Helvetica,sans-Serif" font-size="10.00">IControl</text>
</a>
</g>
</g>
<!-- Node2&#45;&gt;Node1 -->
<g id="edge1" class="edge"><title>Node2&#45;&gt;Node1</title>
<path fill="none" stroke="midnightblue" d="M177,-157.805C177,-148.91 177,-138.78 177,-131.751"/>
<polygon fill="midnightblue" stroke="midnightblue" points="173.5,-158.083 177,-168.083 180.5,-158.083 173.5,-158.083"/>
</g>
<!-- Node5 -->
<g id="node5" class="node"><title>Node5</title>
<g id="a_node5"><a xlink:href="class_i_v_slide_switch_control.html" target="_top" xlink:title="/todo. ">
<polygon fill="white" stroke="black" points="0,-0.5 0,-19.5 114,-19.5 114,-0.5 0,-0.5"/>
<text text-anchor="middle" x="57" y="-7.5" font-family="Helvetica,sans-Serif" font-size="10.00">IVSlideSwitchControl</text>
</a>
</g>
</g>
<!-- Node4&#45;&gt;Node5 -->
<g id="edge4" class="edge"><title>Node4&#45;&gt;Node5</title>
<path fill="none" stroke="midnightblue" d="M148.627,-52.2321C126.18,-42.1312 95.4648,-28.3091 75.9254,-19.5164"/>
<polygon fill="midnightblue" stroke="midnightblue" points="147.43,-55.5316 157.986,-56.4435 150.303,-49.1481 147.43,-55.5316"/>
</g>
<!-- Node6 -->
<g id="node6" class="node"><title>Node6</title>
<g id="a_node6"><a xlink:href="class_i_v_toggle_control.html" target="_top" xlink:title="A vector toggle control. ">
<polygon fill="white" stroke="black" points="132,-0.5 132,-19.5 222,-19.5 222,-0.5 132,-0.5"/>
<text text-anchor="middle" x="177" y="-7.5" font-family="Helvetica,sans-Serif" font-size="10.00">IVToggleControl</text>
</a>
</g>
</g>
<!-- Node4&#45;&gt;Node6 -->
<g id="edge5" class="edge"><title>Node4&#45;&gt;Node6</title>
<path fill="none" stroke="midnightblue" d="M177,-45.8045C177,-36.9102 177,-26.7798 177,-19.7511"/>
<polygon fill="midnightblue" stroke="midnightblue" points="173.5,-46.083 177,-56.083 180.5,-46.083 173.5,-46.083"/>
</g>
<!-- Node8 -->
<g id="node8" class="node"><title>Node8</title>
<g id="a_node8"><a xlink:href="class_i_v_radio_button_control.html" target="_top" xlink:title="IVRadioButtonControl">
<polygon fill="white" stroke="black" points="240.5,-0.5 240.5,-19.5 359.5,-19.5 359.5,-0.5 240.5,-0.5"/>
<text text-anchor="middle" x="300" y="-7.5" font-family="Helvetica,sans-Serif" font-size="10.00">IVRadioButtonControl</text>
</a>
</g>
</g>
<!-- Node7&#45;&gt;Node8 -->
<g id="edge7" class="edge"><title>Node7&#45;&gt;Node8</title>
<path fill="none" stroke="midnightblue" d="M298.066,-45.8045C298.561,-36.9102 299.123,-26.7798 299.514,-19.7511"/>
<polygon fill="midnightblue" stroke="midnightblue" points="294.556,-45.9042 297.495,-56.083 301.545,-46.2926 294.556,-45.9042"/>
</g>
</g>
</svg>
