<?xml version="1.0" encoding="UTF-8" standalone="no"?>
<!DOCTYPE svg PUBLIC "-//W3C//DTD SVG 1.1//EN"
 "http://www.w3.org/Graphics/SVG/1.1/DTD/svg11.dtd">
<!-- Generated by graphviz version 2.38.0 (20140413.2041)
 -->
<!-- Title: IBitmapBase Pages: 1 -->
<svg width="373pt" height="256pt"
 viewBox="0.00 0.00 373.00 256.00" xmlns="http://www.w3.org/2000/svg" xmlns:xlink="http://www.w3.org/1999/xlink">
<g id="graph0" class="graph" transform="scale(1 1) rotate(0) translate(4 252)">
<title>IBitmapBase</title>
<polygon fill="white" stroke="none" points="-4,4 -4,-252 369,-252 369,4 -4,4"/>
<!-- Node1 -->
<g id="node1" class="node"><title>Node1</title>
<polygon fill="#bfbfbf" stroke="black" points="0,-114.5 0,-133.5 77,-133.5 77,-114.5 0,-114.5"/>
<text text-anchor="middle" x="38.5" y="-121.5" font-family="Helvetica,sans-Serif" font-size="10.00">IBitmapBase</text>
</g>
<!-- Node2 -->
<g id="node2" class="node"><title>Node2</title>
<g id="a_node2"><a xlink:href="class_i_b_button_control.html" target="_top" xlink:title="A bitmap button/momentary switch control. ">
<polygon fill="white" stroke="black" points="115.5,-228.5 115.5,-247.5 207.5,-247.5 207.5,-228.5 115.5,-228.5"/>
<text text-anchor="middle" x="161.5" y="-235.5" font-family="Helvetica,sans-Serif" font-size="10.00">IBButtonControl</text>
</a>
</g>
</g>
<!-- Node1&#45;&gt;Node2 -->
<g id="edge1" class="edge"><title>Node1&#45;&gt;Node2</title>
<path fill="none" stroke="midnightblue" d="M49.7874,-142.677C62.2629,-163.794 85.1219,-197.965 113,-219 117.963,-222.745 123.763,-225.862 129.572,-228.415"/>
<polygon fill="midnightblue" stroke="midnightblue" points="52.6702,-140.668 44.6627,-133.73 46.5961,-144.147 52.6702,-140.668"/>
</g>
<!-- Node3 -->
<g id="node3" class="node"><title>Node3</title>
<g id="a_node3"><a xlink:href="class_i_bitmap_control.html" target="_top" xlink:title="A basic control to draw a bitmap, or one frame of a stacked bitmap depending on the current value...">
<polygon fill="white" stroke="black" points="117.5,-190.5 117.5,-209.5 205.5,-209.5 205.5,-190.5 117.5,-190.5"/>
<text text-anchor="middle" x="161.5" y="-197.5" font-family="Helvetica,sans-Serif" font-size="10.00">IBitmapControl</text>
</a>
</g>
</g>
<!-- Node1&#45;&gt;Node3 -->
<g id="edge2" class="edge"><title>Node1&#45;&gt;Node3</title>
<path fill="none" stroke="midnightblue" d="M57.378,-140.178C71.6693,-152.519 92.6177,-169.328 113,-181 119.166,-184.531 126.117,-187.711 132.76,-190.414"/>
<polygon fill="midnightblue" stroke="midnightblue" points="59.6075,-137.477 49.7874,-133.5 54.9841,-142.733 59.6075,-137.477"/>
</g>
<!-- Node4 -->
<g id="node4" class="node"><title>Node4</title>
<g id="a_node4"><a xlink:href="class_i_b_knob_control.html" target="_top" xlink:title="A bitmap knob/dial control that draws a frame from a stacked bitmap. ">
<polygon fill="white" stroke="black" points="119.5,-152.5 119.5,-171.5 203.5,-171.5 203.5,-152.5 119.5,-152.5"/>
<text text-anchor="middle" x="161.5" y="-159.5" font-family="Helvetica,sans-Serif" font-size="10.00">IBKnobControl</text>
</a>
</g>
</g>
<!-- Node1&#45;&gt;Node4 -->
<g id="edge3" class="edge"><title>Node1&#45;&gt;Node4</title>
<path fill="none" stroke="midnightblue" d="M79.8771,-136.68C96.2262,-141.815 114.788,-147.644 129.976,-152.414"/>
<polygon fill="midnightblue" stroke="midnightblue" points="80.6227,-133.246 70.0334,-133.589 78.5253,-139.924 80.6227,-133.246"/>
</g>
<!-- Node6 -->
<g id="node6" class="node"><title>Node6</title>
<g id="a_node6"><a xlink:href="class_i_b_slider_control.html" target="_top" xlink:title="A bitmap slider/fader control. ">
<polygon fill="white" stroke="black" points="118,-114.5 118,-133.5 205,-133.5 205,-114.5 118,-114.5"/>
<text text-anchor="middle" x="161.5" y="-121.5" font-family="Helvetica,sans-Serif" font-size="10.00">IBSliderControl</text>
</a>
</g>
</g>
<!-- Node1&#45;&gt;Node6 -->
<g id="edge5" class="edge"><title>Node1&#45;&gt;Node6</title>
<path fill="none" stroke="midnightblue" d="M87.3773,-124C97.4351,-124 107.98,-124 117.832,-124"/>
<polygon fill="midnightblue" stroke="midnightblue" points="87.1219,-120.5 77.1219,-124 87.1218,-127.5 87.1219,-120.5"/>
</g>
<!-- Node7 -->
<g id="node7" class="node"><title>Node7</title>
<g id="a_node7"><a xlink:href="class_i_b_switch_control.html" target="_top" xlink:title="A bitmap switch control. ">
<polygon fill="white" stroke="black" points="116,-76.5 116,-95.5 207,-95.5 207,-76.5 116,-76.5"/>
<text text-anchor="middle" x="161.5" y="-83.5" font-family="Helvetica,sans-Serif" font-size="10.00">IBSwitchControl</text>
</a>
</g>
</g>
<!-- Node1&#45;&gt;Node7 -->
<g id="edge6" class="edge"><title>Node1&#45;&gt;Node7</title>
<path fill="none" stroke="midnightblue" d="M79.8771,-111.32C96.2262,-106.185 114.788,-100.356 129.976,-95.5859"/>
<polygon fill="midnightblue" stroke="midnightblue" points="78.5253,-108.076 70.0334,-114.411 80.6227,-114.754 78.5253,-108.076"/>
</g>
<!-- Node8 -->
<g id="node8" class="node"><title>Node8</title>
<g id="a_node8"><a xlink:href="class_i_b_text_control.html" target="_top" xlink:title="A control to display text using a monospace bitmap font. ">
<polygon fill="white" stroke="black" points="122,-38.5 122,-57.5 201,-57.5 201,-38.5 122,-38.5"/>
<text text-anchor="middle" x="161.5" y="-45.5" font-family="Helvetica,sans-Serif" font-size="10.00">IBTextControl</text>
</a>
</g>
</g>
<!-- Node1&#45;&gt;Node8 -->
<g id="edge7" class="edge"><title>Node1&#45;&gt;Node8</title>
<path fill="none" stroke="midnightblue" d="M57.378,-107.822C71.6693,-95.4814 92.6177,-78.6719 113,-67 119.166,-63.469 126.117,-60.2895 132.76,-57.5865"/>
<polygon fill="midnightblue" stroke="midnightblue" points="54.9841,-105.267 49.7874,-114.5 59.6075,-110.523 54.9841,-105.267"/>
</g>
<!-- Node9 -->
<g id="node9" class="node"><title>Node9</title>
<g id="a_node9"><a xlink:href="class_test_blend_control.html" target="_top" xlink:title="Control to test blend methods. ">
<polygon fill="white" stroke="black" points="113,-0.5 113,-19.5 210,-19.5 210,-0.5 113,-0.5"/>
<text text-anchor="middle" x="161.5" y="-7.5" font-family="Helvetica,sans-Serif" font-size="10.00">TestBlendControl</text>
</a>
</g>
</g>
<!-- Node1&#45;&gt;Node9 -->
<g id="edge8" class="edge"><title>Node1&#45;&gt;Node9</title>
<path fill="none" stroke="midnightblue" d="M49.7874,-105.323C62.2629,-84.2065 85.1219,-50.0355 113,-29 117.963,-25.2552 123.763,-22.1378 129.572,-19.5846"/>
<polygon fill="midnightblue" stroke="midnightblue" points="46.5961,-103.853 44.6627,-114.27 52.6702,-107.332 46.5961,-103.853"/>
</g>
<!-- Node5 -->
<g id="node5" class="node"><title>Node5</title>
<g id="a_node5"><a xlink:href="class_i_b_knob_rotater_control.html" target="_top" xlink:title="A bitmap knob/dial control that rotates an image. ">
<polygon fill="white" stroke="black" points="246,-152.5 246,-171.5 365,-171.5 365,-152.5 246,-152.5"/>
<text text-anchor="middle" x="305.5" y="-159.5" font-family="Helvetica,sans-Serif" font-size="10.00">IBKnobRotaterControl</text>
</a>
</g>
</g>
<!-- Node4&#45;&gt;Node5 -->
<g id="edge4" class="edge"><title>Node4&#45;&gt;Node5</title>
<path fill="none" stroke="midnightblue" d="M213.742,-162C224.154,-162 235.182,-162 245.829,-162"/>
<polygon fill="midnightblue" stroke="midnightblue" points="213.572,-158.5 203.572,-162 213.572,-165.5 213.572,-158.5"/>
</g>
</g>
</svg>
