<?xml version="1.0" encoding="UTF-8" standalone="no"?>
<!DOCTYPE svg PUBLIC "-//W3C//DTD SVG 1.1//EN"
 "http://www.w3.org/Graphics/SVG/1.1/DTD/svg11.dtd">
<!-- Generated by graphviz version 2.38.0 (20140413.2041)
 -->
<!-- Title: IVectorBase Pages: 1 -->
<!--zoomable 557 -->
<svg id="main" version="1.1" xmlns="http://www.w3.org/2000/svg" xmlns:xlink="http://www.w3.org/1999/xlink" xml:space="preserve" onload="init(evt)">
<style type="text/css"><![CDATA[
.edge:hover path { stroke: red; }
.edge:hover polygon { stroke: red; fill: red; }
]]></style>
<script type="text/javascript"><![CDATA[
var edges = document.getElementsByTagName('g');
if (edges && edges.length) {
  for (var i=0;i<edges.length;i++) {
    if (edges[i].id.substr(0,4)=='edge') {
      edges[i].setAttribute('class','edge');
    }
  }
}
]]></script>
        <defs>
                <circle id="rim" cx="0" cy="0" r="7"/>
                <circle id="rim2" cx="0" cy="0" r="3.5"/>
                <g id="zoomPlus">
                        <use xlink:href="#rim" fill="#404040">
                                <set attributeName="fill" to="#808080" begin="zoomplus.mouseover" end="zoomplus.mouseout"/>
                        </use>
                        <path d="M-4,0h8M0,-4v8" fill="none" stroke="white" stroke-width="1.5" pointer-events="none"/>
                </g>
                <g id="zoomMin">
                        <use xlink:href="#rim" fill="#404040">
                                <set attributeName="fill" to="#808080" begin="zoomminus.mouseover" end="zoomminus.mouseout"/>
                        </use>
                        <path d="M-4,0h8" fill="none" stroke="white" stroke-width="1.5" pointer-events="none"/>
                </g>
                <g id="dirArrow">
                        <path fill="none" stroke="white" stroke-width="1.5" d="M0,-3.0v7 M-2.5,-0.5L0,-3.0L2.5,-0.5"/>
                </g>
               <g id="resetDef">
                       <use xlink:href="#rim2" fill="#404040">
                               <set attributeName="fill" to="#808080" begin="reset.mouseover" end="reset.mouseout"/>
                       </use>
               </g>
        </defs>

<script type="text/javascript">
var viewWidth = 431;
var viewHeight = 557;
var sectionId = 'dynsection-0';
</script>
<script xlink:href="svgpan.js"/>
<svg id="graph" class="graph">
<g id="viewport">
<title>IVectorBase</title>
<polygon fill="white" stroke="none" points="-4,4 -4,-553 427,-553 427,4 -4,4"/>
<!-- Node1 -->
<g id="node1" class="node"><title>Node1</title>
<polygon fill="#bfbfbf" stroke="black" points="0,-301.5 0,-320.5 74,-320.5 74,-301.5 0,-301.5"/>
<text text-anchor="middle" x="37" y="-308.5" font-family="Helvetica,sans-Serif" font-size="10.00">IVectorBase</text>
</g>
<!-- Node2 -->
<g id="node2" class="node"><title>Node2</title>
<g id="a_node2"><a xlink:href="class_i_f_p_s_display_control.html" target="_top" xlink:title="Performance display meter, based on code from NanoVG This is a special control that lives outside the...">
<polygon fill="white" stroke="black" points="127,-529.5 127,-548.5 233,-548.5 233,-529.5 127,-529.5"/>
<text text-anchor="middle" x="180" y="-536.5" font-family="Helvetica,sans-Serif" font-size="10.00">IFPSDisplayControl</text>
</a>
</g>
</g>
<!-- Node1&#45;&gt;Node2 -->
<g id="edge1" class="edge"><title>Node1&#45;&gt;Node2</title>
<path fill="none" stroke="midnightblue" d="M38.9072,-330.665C41.8997,-371.956 54.759,-468.137 110,-520 114.801,-524.507 120.572,-527.963 126.704,-530.609"/>
<polygon fill="midnightblue" stroke="midnightblue" points="42.3933,-330.329 38.2978,-320.557 35.406,-330.75 42.3933,-330.329"/>
</g>
<!-- Node3 -->
<g id="node3" class="node"><title>Node3</title>
<g id="a_node3"><a xlink:href="class_i_v_button_control.html" target="_top" xlink:title="A vector button/momentary switch control. ">
<polygon fill="white" stroke="black" points="134,-491.5 134,-510.5 226,-510.5 226,-491.5 134,-491.5"/>
<text text-anchor="middle" x="180" y="-498.5" font-family="Helvetica,sans-Serif" font-size="10.00">IVButtonControl</text>
</a>
</g>
</g>
<!-- Node1&#45;&gt;Node3 -->
<g id="edge2" class="edge"><title>Node1&#45;&gt;Node3</title>
<path fill="none" stroke="midnightblue" d="M40.6817,-330.963C46.5524,-366.676 63.9119,-441.538 110,-482 116.723,-487.902 125.122,-491.987 133.723,-494.811"/>
<polygon fill="midnightblue" stroke="midnightblue" points="44.107,-330.205 39.1575,-320.837 37.185,-331.247 44.107,-330.205"/>
</g>
<!-- Node4 -->
<g id="node4" class="node"><title>Node4</title>
<g id="a_node4"><a xlink:href="class_i_v_display_control.html" target="_top" xlink:title="IVDisplayControl">
<polygon fill="white" stroke="black" points="132.5,-453.5 132.5,-472.5 227.5,-472.5 227.5,-453.5 132.5,-453.5"/>
<text text-anchor="middle" x="180" y="-460.5" font-family="Helvetica,sans-Serif" font-size="10.00">IVDisplayControl</text>
</a>
</g>
</g>
<!-- Node1&#45;&gt;Node4 -->
<g id="edge3" class="edge"><title>Node1&#45;&gt;Node4</title>
<path fill="none" stroke="midnightblue" d="M43.2257,-330.567C52.0333,-359.719 72.6385,-414.299 110,-444 116.517,-449.18 124.348,-452.951 132.361,-455.694"/>
<polygon fill="midnightblue" stroke="midnightblue" points="46.5314,-329.397 40.4174,-320.744 39.801,-331.321 46.5314,-329.397"/>
</g>
<!-- Node5 -->
<g id="node5" class="node"><title>Node5</title>
<g id="a_node5"><a xlink:href="class_i_v_group_control.html" target="_top" xlink:title="IVGroupControl">
<polygon fill="white" stroke="black" points="135.5,-415.5 135.5,-434.5 224.5,-434.5 224.5,-415.5 135.5,-415.5"/>
<text text-anchor="middle" x="180" y="-422.5" font-family="Helvetica,sans-Serif" font-size="10.00">IVGroupControl</text>
</a>
</g>
</g>
<!-- Node1&#45;&gt;Node5 -->
<g id="edge4" class="edge"><title>Node1&#45;&gt;Node5</title>
<path fill="none" stroke="midnightblue" d="M47.3999,-329.915C59.1149,-351.539 81.1589,-386.459 110,-406 117.509,-411.088 126.346,-414.819 135.144,-417.553"/>
<polygon fill="midnightblue" stroke="midnightblue" points="50.3514,-328.005 42.6252,-320.756 44.1442,-331.241 50.3514,-328.005"/>
</g>
<!-- Node6 -->
<g id="node6" class="node"><title>Node6</title>
<g id="a_node6"><a xlink:href="class_i_v_knob_control.html" target="_top" xlink:title="A vector knob control drawn using graphics primitves. ">
<polygon fill="white" stroke="black" points="138,-377.5 138,-396.5 222,-396.5 222,-377.5 138,-377.5"/>
<text text-anchor="middle" x="180" y="-384.5" font-family="Helvetica,sans-Serif" font-size="10.00">IVKnobControl</text>
</a>
</g>
</g>
<!-- Node1&#45;&gt;Node6 -->
<g id="edge5" class="edge"><title>Node1&#45;&gt;Node6</title>
<path fill="none" stroke="midnightblue" d="M54.6392,-327.405C68.4237,-340.153 89.0785,-357.394 110,-368 118.644,-372.382 128.427,-375.858 137.851,-378.572"/>
<polygon fill="midnightblue" stroke="midnightblue" points="57.0297,-324.849 47.3669,-320.503 52.2109,-329.926 57.0297,-324.849"/>
</g>
<!-- Node7 -->
<g id="node7" class="node"><title>Node7</title>
<g id="a_node7"><a xlink:href="class_i_v_label_control.html" target="_top" xlink:title="IVLabelControl">
<polygon fill="white" stroke="black" points="137,-339.5 137,-358.5 223,-358.5 223,-339.5 137,-339.5"/>
<text text-anchor="middle" x="180" y="-346.5" font-family="Helvetica,sans-Serif" font-size="10.00">IVLabelControl</text>
</a>
</g>
</g>
<!-- Node1&#45;&gt;Node7 -->
<g id="edge6" class="edge"><title>Node1&#45;&gt;Node7</title>
<path fill="none" stroke="midnightblue" d="M83.4398,-323.246C102.875,-328.484 125.231,-334.509 143.431,-339.414"/>
<polygon fill="midnightblue" stroke="midnightblue" points="84.1465,-319.812 73.5803,-320.589 82.325,-326.571 84.1465,-319.812"/>
</g>
<!-- Node8 -->
<g id="node8" class="node"><title>Node8</title>
<g id="a_node8"><a xlink:href="class_i_v_plot_control.html" target="_top" xlink:title="a vector plot to display functions and waveforms ">
<polygon fill="white" stroke="black" points="141,-301.5 141,-320.5 219,-320.5 219,-301.5 141,-301.5"/>
<text text-anchor="middle" x="180" y="-308.5" font-family="Helvetica,sans-Serif" font-size="10.00">IVPlotControl</text>
</a>
</g>
</g>
<!-- Node1&#45;&gt;Node8 -->
<g id="edge7" class="edge"><title>Node1&#45;&gt;Node8</title>
<path fill="none" stroke="midnightblue" d="M84.4597,-311C102.736,-311 123.462,-311 140.84,-311"/>
<polygon fill="midnightblue" stroke="midnightblue" points="84.311,-307.5 74.311,-311 84.311,-314.5 84.311,-307.5"/>
</g>
<!-- Node9 -->
<g id="node9" class="node"><title>Node9</title>
<g id="a_node9"><a xlink:href="class_i_v_scope_control.html" target="_top" xlink:title="Vectorial multichannel capable oscilloscope control. ">
<polygon fill="white" stroke="black" points="110,-252 110,-282 250,-282 250,-252 110,-252"/>
<text text-anchor="start" x="118" y="-270" font-family="Helvetica,sans-Serif" font-size="10.00">IVScopeControl&lt; MAXNC,</text>
<text text-anchor="middle" x="180" y="-259" font-family="Helvetica,sans-Serif" font-size="10.00"> MAXBUF, QUEUE_SIZE &gt;</text>
</a>
</g>
</g>
<!-- Node1&#45;&gt;Node9 -->
<g id="edge8" class="edge"><title>Node1&#45;&gt;Node9</title>
<path fill="none" stroke="midnightblue" d="M78.3747,-298.401C94.6983,-293.307 113.676,-287.385 130.722,-282.065"/>
<polygon fill="midnightblue" stroke="midnightblue" points="77.0983,-295.133 68.5949,-301.453 79.1835,-301.815 77.0983,-295.133"/>
</g>
<!-- Node10 -->
<g id="node10" class="node"><title>Node10</title>
<g id="a_node10"><a xlink:href="class_i_v_slider_control.html" target="_top" xlink:title="A vector slider control. ">
<polygon fill="white" stroke="black" points="136.5,-213.5 136.5,-232.5 223.5,-232.5 223.5,-213.5 136.5,-213.5"/>
<text text-anchor="middle" x="180" y="-220.5" font-family="Helvetica,sans-Serif" font-size="10.00">IVSliderControl</text>
</a>
</g>
</g>
<!-- Node1&#45;&gt;Node10 -->
<g id="edge9" class="edge"><title>Node1&#45;&gt;Node10</title>
<path fill="none" stroke="midnightblue" d="M52.3496,-293.346C65.7501,-277.958 87.0802,-256.107 110,-243 118.12,-238.356 127.405,-234.717 136.474,-231.892"/>
<polygon fill="midnightblue" stroke="midnightblue" points="49.548,-291.238 45.761,-301.133 54.892,-295.76 49.548,-291.238"/>
</g>
<!-- Node11 -->
<g id="node11" class="node"><title>Node11</title>
<g id="a_node11"><a xlink:href="class_i_v_switch_control.html" target="_top" xlink:title="A vector switch control. ">
<polygon fill="white" stroke="black" points="134.5,-175.5 134.5,-194.5 225.5,-194.5 225.5,-175.5 134.5,-175.5"/>
<text text-anchor="middle" x="180" y="-182.5" font-family="Helvetica,sans-Serif" font-size="10.00">IVSwitchControl</text>
</a>
</g>
</g>
<!-- Node1&#45;&gt;Node11 -->
<g id="edge10" class="edge"><title>Node1&#45;&gt;Node11</title>
<path fill="none" stroke="midnightblue" d="M45.8163,-291.829C56.6414,-267.697 78.492,-226.665 110,-204 117.161,-198.848 125.658,-195.093 134.198,-192.355"/>
<polygon fill="midnightblue" stroke="midnightblue" points="42.4712,-290.749 41.7393,-301.318 48.9027,-293.512 42.4712,-290.749"/>
</g>
<!-- Node14 -->
<g id="node14" class="node"><title>Node14</title>
<g id="a_node14"><a xlink:href="class_i_v_tab_switch_control.html" target="_top" xlink:title="A vector &quot;tab&quot; multi switch control. ">
<polygon fill="white" stroke="black" points="126.5,-137.5 126.5,-156.5 233.5,-156.5 233.5,-137.5 126.5,-137.5"/>
<text text-anchor="middle" x="180" y="-144.5" font-family="Helvetica,sans-Serif" font-size="10.00">IVTabSwitchControl</text>
</a>
</g>
</g>
<!-- Node1&#45;&gt;Node14 -->
<g id="edge13" class="edge"><title>Node1&#45;&gt;Node14</title>
<path fill="none" stroke="midnightblue" d="M42.3655,-291.032C50.2793,-259.645 70.0139,-198.955 110,-166 114.794,-162.049 120.348,-158.916 126.181,-156.433"/>
<polygon fill="midnightblue" stroke="midnightblue" points="38.8648,-290.627 39.9691,-301.164 45.6769,-292.238 38.8648,-290.627"/>
</g>
<!-- Node16 -->
<g id="node16" class="node"><title>Node16</title>
<g id="a_node16"><a xlink:href="class_i_v_track_control_base.html" target="_top" xlink:title="A base class for mult&#45;strip/track controls, such as multi&#45;sliders, meters. ">
<polygon fill="white" stroke="black" points="126,-93.5 126,-112.5 234,-112.5 234,-93.5 126,-93.5"/>
<text text-anchor="middle" x="180" y="-100.5" font-family="Helvetica,sans-Serif" font-size="10.00">IVTrackControlBase</text>
</a>
</g>
</g>
<!-- Node1&#45;&gt;Node16 -->
<g id="edge15" class="edge"><title>Node1&#45;&gt;Node16</title>
<path fill="none" stroke="midnightblue" d="M40.4306,-291.051C45.9885,-253.9 62.9906,-173.746 110,-128 117.031,-121.158 126.075,-116.17 135.285,-112.54"/>
<polygon fill="midnightblue" stroke="midnightblue" points="36.9417,-290.731 39.0526,-301.114 43.877,-291.681 36.9417,-290.731"/>
</g>
<!-- Node20 -->
<g id="node20" class="node"><title>Node20</title>
<g id="a_node20"><a xlink:href="class_i_v_x_y_pad_control.html" target="_top" xlink:title="IVXYPadControl">
<polygon fill="white" stroke="black" points="135.5,-55.5 135.5,-74.5 224.5,-74.5 224.5,-55.5 135.5,-55.5"/>
<text text-anchor="middle" x="180" y="-62.5" font-family="Helvetica,sans-Serif" font-size="10.00">IVXYPadControl</text>
</a>
</g>
</g>
<!-- Node1&#45;&gt;Node20 -->
<g id="edge19" class="edge"><title>Node1&#45;&gt;Node20</title>
<path fill="none" stroke="midnightblue" d="M38.2962,-290.867C40.0714,-246.784 50.6555,-141.106 110,-84 116.983,-77.28 126.117,-72.8912 135.442,-70.0368"/>
<polygon fill="midnightblue" stroke="midnightblue" points="34.79,-291.036 38.0028,-301.131 41.7872,-291.236 34.79,-291.036"/>
</g>
<!-- Node12 -->
<g id="node12" class="node"><title>Node12</title>
<g id="a_node12"><a xlink:href="class_i_v_slide_switch_control.html" target="_top" xlink:title="/todo. ">
<polygon fill="white" stroke="black" points="297.5,-213.5 297.5,-232.5 411.5,-232.5 411.5,-213.5 297.5,-213.5"/>
<text text-anchor="middle" x="354.5" y="-220.5" font-family="Helvetica,sans-Serif" font-size="10.00">IVSlideSwitchControl</text>
</a>
</g>
</g>
<!-- Node11&#45;&gt;Node12 -->
<g id="edge11" class="edge"><title>Node11&#45;&gt;Node12</title>
<path fill="none" stroke="midnightblue" d="M234.351,-196.753C258.742,-202.126 287.263,-208.409 310.284,-213.48"/>
<polygon fill="midnightblue" stroke="midnightblue" points="235.048,-193.322 224.529,-194.589 233.542,-200.158 235.048,-193.322"/>
</g>
<!-- Node13 -->
<g id="node13" class="node"><title>Node13</title>
<g id="a_node13"><a xlink:href="class_i_v_toggle_control.html" target="_top" xlink:title="A vector toggle control. ">
<polygon fill="white" stroke="black" points="309.5,-175.5 309.5,-194.5 399.5,-194.5 399.5,-175.5 309.5,-175.5"/>
<text text-anchor="middle" x="354.5" y="-182.5" font-family="Helvetica,sans-Serif" font-size="10.00">IVToggleControl</text>
</a>
</g>
</g>
<!-- Node11&#45;&gt;Node13 -->
<g id="edge12" class="edge"><title>Node11&#45;&gt;Node13</title>
<path fill="none" stroke="midnightblue" d="M236.126,-185C259.821,-185 287.136,-185 309.45,-185"/>
<polygon fill="midnightblue" stroke="midnightblue" points="235.872,-181.5 225.872,-185 235.872,-188.5 235.872,-181.5"/>
</g>
<!-- Node15 -->
<g id="node15" class="node"><title>Node15</title>
<g id="a_node15"><a xlink:href="class_i_v_radio_button_control.html" target="_top" xlink:title="IVRadioButtonControl">
<polygon fill="white" stroke="black" points="295,-137.5 295,-156.5 414,-156.5 414,-137.5 295,-137.5"/>
<text text-anchor="middle" x="354.5" y="-144.5" font-family="Helvetica,sans-Serif" font-size="10.00">IVRadioButtonControl</text>
</a>
</g>
</g>
<!-- Node14&#45;&gt;Node15 -->
<g id="edge14" class="edge"><title>Node14&#45;&gt;Node15</title>
<path fill="none" stroke="midnightblue" d="M243.867,-147C260.506,-147 278.401,-147 294.81,-147"/>
<polygon fill="midnightblue" stroke="midnightblue" points="243.693,-143.5 233.693,-147 243.693,-150.5 243.693,-143.5"/>
</g>
<!-- Node17 -->
<g id="node17" class="node"><title>Node17</title>
<g id="a_node17"><a xlink:href="class_i_v_meter_control.html" target="_top" xlink:title="Vectorial multichannel capable meter control. ">
<polygon fill="white" stroke="black" points="286,-88 286,-118 423,-118 423,-88 286,-88"/>
<text text-anchor="start" x="294" y="-106" font-family="Helvetica,sans-Serif" font-size="10.00">IVMeterControl&lt; MAXNC,</text>
<text text-anchor="middle" x="354.5" y="-95" font-family="Helvetica,sans-Serif" font-size="10.00"> QUEUE_SIZE &gt;</text>
</a>
</g>
</g>
<!-- Node16&#45;&gt;Node17 -->
<g id="edge16" class="edge"><title>Node16&#45;&gt;Node17</title>
<path fill="none" stroke="midnightblue" d="M244.323,-103C257.848,-103 272.184,-103 285.864,-103"/>
<polygon fill="midnightblue" stroke="midnightblue" points="244.163,-99.5001 234.163,-103 244.163,-106.5 244.163,-99.5001"/>
</g>
<!-- Node18 -->
<g id="node18" class="node"><title>Node18</title>
<g id="a_node18"><a xlink:href="class_i_v_multi_slider_control.html" target="_top" xlink:title="A vectorial multi&#45;slider control. ">
<polygon fill="white" stroke="black" points="299.5,-39 299.5,-69 409.5,-69 409.5,-39 299.5,-39"/>
<text text-anchor="start" x="307.5" y="-57" font-family="Helvetica,sans-Serif" font-size="10.00">IVMultiSliderControl</text>
<text text-anchor="middle" x="354.5" y="-46" font-family="Helvetica,sans-Serif" font-size="10.00">&lt; MAXNC &gt;</text>
</a>
</g>
</g>
<!-- Node16&#45;&gt;Node18 -->
<g id="edge17" class="edge"><title>Node16&#45;&gt;Node18</title>
<path fill="none" stroke="midnightblue" d="M225.785,-90.762C233.851,-88.531 242.18,-86.21 250,-84 267.013,-79.1922 285.569,-73.8459 302.211,-69.0139"/>
<polygon fill="midnightblue" stroke="midnightblue" points="224.837,-87.3926 216.127,-93.4252 226.698,-94.1407 224.837,-87.3926"/>
</g>
<!-- Node19 -->
<g id="node19" class="node"><title>Node19</title>
<g id="a_node19"><a xlink:href="class_i_v_range_slider_control.html" target="_top" xlink:title="IVRangeSliderControl">
<polygon fill="white" stroke="black" points="296,-0.5 296,-19.5 413,-19.5 413,-0.5 296,-0.5"/>
<text text-anchor="middle" x="354.5" y="-7.5" font-family="Helvetica,sans-Serif" font-size="10.00">IVRangeSliderControl</text>
</a>
</g>
</g>
<!-- Node16&#45;&gt;Node19 -->
<g id="edge18" class="edge"><title>Node16&#45;&gt;Node19</title>
<path fill="none" stroke="midnightblue" d="M241.52,-89.2455C244.49,-87.6815 247.339,-85.9398 250,-84 273.607,-66.7888 262.442,-46.2782 286,-29 291.301,-25.112 297.369,-22.0189 303.645,-19.5583"/>
<polygon fill="midnightblue" stroke="midnightblue" points="239.973,-86.1038 232.314,-93.4242 242.867,-92.4779 239.973,-86.1038"/>
</g>
</g>
</svg>
        <g id="navigator" transform="translate(0 0)" fill="#404254">
                <rect fill="#f2f5e9" fill-opacity="0.5" stroke="#606060" stroke-width=".5" x="0" y="0" width="60" height="60"/>
                <use id="zoomplus" xlink:href="#zoomPlus" x="17" y="9" onmousedown="handleZoom(evt,'in')"/>
                <use id="zoomminus" xlink:href="#zoomMin" x="42" y="9" onmousedown="handleZoom(evt,'out')"/>
                <use id="reset" xlink:href="#resetDef" x="30" y="36" onmousedown="handleReset()"/>
                <g id="arrowUp" xlink:href="#dirArrow" transform="translate(30 24)" onmousedown="handlePan(0,-1)">
                  <use xlink:href="#rim" fill="#404040">
                        <set attributeName="fill" to="#808080" begin="arrowUp.mouseover" end="arrowUp.mouseout"/>
                  </use>
                  <path fill="none" stroke="white" stroke-width="1.5" d="M0,-3.0v7 M-2.5,-0.5L0,-3.0L2.5,-0.5"/>
                </g>
                <g id="arrowRight" xlink:href="#dirArrow" transform="rotate(90) translate(36 -43)" onmousedown="handlePan(1,0)">
                  <use xlink:href="#rim" fill="#404040">
                        <set attributeName="fill" to="#808080" begin="arrowRight.mouseover" end="arrowRight.mouseout"/>
                  </use>
                  <path fill="none" stroke="white" stroke-width="1.5" d="M0,-3.0v7 M-2.5,-0.5L0,-3.0L2.5,-0.5"/>
                </g>
                <g id="arrowDown" xlink:href="#dirArrow" transform="rotate(180) translate(-30 -48)" onmousedown="handlePan(0,1)">
                  <use xlink:href="#rim" fill="#404040">
                        <set attributeName="fill" to="#808080" begin="arrowDown.mouseover" end="arrowDown.mouseout"/>
                  </use>
                  <path fill="none" stroke="white" stroke-width="1.5" d="M0,-3.0v7 M-2.5,-0.5L0,-3.0L2.5,-0.5"/>
                </g>
                <g id="arrowLeft" xlink:href="#dirArrow" transform="rotate(270) translate(-36 17)" onmousedown="handlePan(-1,0)">
                  <use xlink:href="#rim" fill="#404040">
                        <set attributeName="fill" to="#808080" begin="arrowLeft.mouseover" end="arrowLeft.mouseout"/>
                  </use>
                  <path fill="none" stroke="white" stroke-width="1.5" d="M0,-3.0v7 M-2.5,-0.5L0,-3.0L2.5,-0.5"/>
                </g>
        </g>
        <svg viewBox="0 0 15 15" width="100%" height="30px" preserveAspectRatio="xMaxYMin meet">
         <g id="arrow_out" transform="scale(0.3 0.3)">
          <a xlink:href="class_i_vector_base__inherit__graph_org.svg" target="_base">
           <rect id="button" ry="5" rx="5" y="6" x="6" height="38" width="38"
                fill="#f2f5e9" fill-opacity="0.5" stroke="#606060" stroke-width="1.0"/>
           <path id="arrow"
             d="M 11.500037,31.436501 C 11.940474,20.09759 22.043105,11.32322 32.158766,21.979434 L 37.068811,17.246167 C 37.068811,17.246167 37.088388,32 37.088388,32 L 22.160133,31.978069 C 22.160133,31.978069 26.997745,27.140456 26.997745,27.140456 C 18.528582,18.264221 13.291696,25.230495 11.500037,31.436501 z"
             style="fill:#404040;"/>
          </a>
         </g>
        </svg>
</svg>
