<?xml version="1.0" encoding="UTF-8" standalone="no"?>
<!DOCTYPE svg PUBLIC "-//W3C//DTD SVG 1.1//EN"
 "http://www.w3.org/Graphics/SVG/1.1/DTD/svg11.dtd">
<!-- Generated by graphviz version 2.38.0 (20140413.2041)
 -->
<!-- Title: IPlugVST3 Pages: 1 -->
<svg width="585pt" height="154pt"
 viewBox="0.00 0.00 585.00 153.50" xmlns="http://www.w3.org/2000/svg" xmlns:xlink="http://www.w3.org/1999/xlink">
<g id="graph0" class="graph" transform="scale(1 1) rotate(0) translate(4 149.5)">
<title>IPlugVST3</title>
<polygon fill="white" stroke="none" points="-4,4 -4,-149.5 581,-149.5 581,4 -4,4"/>
<!-- Node1 -->
<g id="node1" class="node"><title>Node1</title>
<polygon fill="#bfbfbf" stroke="black" points="513,-69 513,-88 577,-88 577,-69 513,-69"/>
<text text-anchor="middle" x="545" y="-76" font-family="Helvetica,sans-Serif" font-size="10.00">IPlugVST3</text>
</g>
<!-- Node2 -->
<g id="node2" class="node"><title>Node2</title>
<g id="a_node2"><a xlink:href="class_i_plug_a_p_i_base.html" target="_top" xlink:title="The base class of an IPlug plug&#45;in, which interacts with the different plug&#45;in APIs. ">
<polygon fill="white" stroke="black" points="350,-126 350,-145 428,-145 428,-126 350,-126"/>
<text text-anchor="middle" x="389" y="-133" font-family="Helvetica,sans-Serif" font-size="10.00">IPlugAPIBase</text>
</a>
</g>
</g>
<!-- Node2&#45;&gt;Node1 -->
<g id="edge1" class="edge"><title>Node2&#45;&gt;Node1</title>
<path fill="none" stroke="midnightblue" d="M438.426,-127.623C451.196,-124.82 464.809,-121.165 477,-116.5 496.359,-109.092 516.837,-96.7243 529.982,-88.1183"/>
<polygon fill="midnightblue" stroke="midnightblue" points="437.493,-124.241 428.408,-129.691 438.909,-131.097 437.493,-124.241"/>
</g>
<!-- Node3 -->
<g id="node3" class="node"><title>Node3</title>
<g id="a_node3"><a xlink:href="class_i_plugin_base.html" target="_top" xlink:title="Base class that contains plug&#45;in info and state manipulation methods. ">
<polygon fill="white" stroke="black" points="186.5,-126 186.5,-145 257.5,-145 257.5,-126 186.5,-126"/>
<text text-anchor="middle" x="222" y="-133" font-family="Helvetica,sans-Serif" font-size="10.00">IPluginBase</text>
</a>
</g>
</g>
<!-- Node3&#45;&gt;Node2 -->
<g id="edge2" class="edge"><title>Node3&#45;&gt;Node2</title>
<path fill="none" stroke="midnightblue" d="M267.796,-135.5C293.429,-135.5 325.248,-135.5 349.709,-135.5"/>
<polygon fill="midnightblue" stroke="midnightblue" points="267.589,-132 257.589,-135.5 267.589,-139 267.589,-132"/>
</g>
<!-- Node4 -->
<g id="node4" class="node"><title>Node4</title>
<polygon fill="white" stroke="#bfbfbf" points="0,-126 0,-145 143,-145 143,-126 0,-126"/>
<text text-anchor="middle" x="71.5" y="-133" font-family="Helvetica,sans-Serif" font-size="10.00">EDITOR_DELEGATE_CLASS</text>
</g>
<!-- Node4&#45;&gt;Node3 -->
<g id="edge3" class="edge"><title>Node4&#45;&gt;Node3</title>
<path fill="none" stroke="midnightblue" d="M153.426,-135.5C164.952,-135.5 176.26,-135.5 186.23,-135.5"/>
<polygon fill="midnightblue" stroke="midnightblue" points="153.271,-132 143.271,-135.5 153.271,-139 153.271,-132"/>
</g>
<!-- Node5 -->
<g id="node5" class="node"><title>Node5</title>
<g id="a_node5"><a xlink:href="class_i_plug_v_s_t3_processor_base.html" target="_top" xlink:title="Shared VST3 processor code. ">
<polygon fill="white" stroke="black" points="321.5,-88 321.5,-107 456.5,-107 456.5,-88 321.5,-88"/>
<text text-anchor="middle" x="389" y="-95" font-family="Helvetica,sans-Serif" font-size="10.00">IPlugVST3ProcessorBase</text>
</a>
</g>
</g>
<!-- Node5&#45;&gt;Node1 -->
<g id="edge4" class="edge"><title>Node5&#45;&gt;Node1</title>
<path fill="none" stroke="midnightblue" d="M466.765,-88.0291C483.052,-86.0195 499.354,-84.0083 512.755,-82.3549"/>
<polygon fill="midnightblue" stroke="midnightblue" points="466.147,-84.5786 456.651,-89.2768 467.004,-91.5259 466.147,-84.5786"/>
</g>
<!-- Node6 -->
<g id="node6" class="node"><title>Node6</title>
<g id="a_node6"><a xlink:href="class_i_plug_processor.html" target="_top" xlink:title="The base class for IPlug Audio Processing. ">
<polygon fill="white" stroke="black" points="179,-88 179,-107 265,-107 265,-88 179,-88"/>
<text text-anchor="middle" x="222" y="-95" font-family="Helvetica,sans-Serif" font-size="10.00">IPlugProcessor</text>
</a>
</g>
</g>
<!-- Node6&#45;&gt;Node5 -->
<g id="edge5" class="edge"><title>Node6&#45;&gt;Node5</title>
<path fill="none" stroke="midnightblue" d="M275.398,-97.5C289.987,-97.5 306.032,-97.5 321.324,-97.5"/>
<polygon fill="midnightblue" stroke="midnightblue" points="275.063,-94.0001 265.063,-97.5 275.063,-101 275.063,-94.0001"/>
</g>
<!-- Node7 -->
<g id="node7" class="node"><title>Node7</title>
<g id="a_node7"><a xlink:href="class_i_plug_v_s_t3_controller_base.html" target="_top" xlink:title="Shared VST3 controller code. ">
<polygon fill="white" stroke="black" points="322,-50 322,-69 456,-69 456,-50 322,-50"/>
<text text-anchor="middle" x="389" y="-57" font-family="Helvetica,sans-Serif" font-size="10.00">IPlugVST3ControllerBase</text>
</a>
</g>
</g>
<!-- Node7&#45;&gt;Node1 -->
<g id="edge6" class="edge"><title>Node7&#45;&gt;Node1</title>
<path fill="none" stroke="midnightblue" d="M466.434,-68.9302C482.916,-70.9637 499.433,-73.0015 512.963,-74.6708"/>
<polygon fill="midnightblue" stroke="midnightblue" points="466.557,-65.4189 456.204,-67.668 465.7,-72.3662 466.557,-65.4189"/>
</g>
<!-- Node8 -->
<g id="node8" class="node"><title>Node8</title>
<polygon fill="white" stroke="#bfbfbf" points="301,-0.5 301,-30.5 477,-30.5 477,-0.5 301,-0.5"/>
<text text-anchor="start" x="309" y="-18.5" font-family="Helvetica,sans-Serif" font-size="10.00">Steinberg::Vst::SingleComponent</text>
<text text-anchor="middle" x="389" y="-7.5" font-family="Helvetica,sans-Serif" font-size="10.00">Effect</text>
</g>
<!-- Node8&#45;&gt;Node1 -->
<g id="edge7" class="edge"><title>Node8&#45;&gt;Node1</title>
<path fill="none" stroke="midnightblue" d="M459.204,-33.7574C465.287,-35.851 471.295,-38.1024 477,-40.5 495.862,-48.4274 516.11,-60.4524 529.35,-68.8455"/>
<polygon fill="midnightblue" stroke="midnightblue" points="460.21,-30.4035 449.617,-30.5991 458.019,-37.0521 460.21,-30.4035"/>
</g>
</g>
</svg>
