<?xml version="1.0" encoding="UTF-8" standalone="no"?>
<!DOCTYPE svg PUBLIC "-//W3C//DTD SVG 1.1//EN"
 "http://www.w3.org/Graphics/SVG/1.1/DTD/svg11.dtd">
<!-- Generated by graphviz version 2.38.0 (20140413.2041)
 -->
<!-- Title: IPlugAPIBase Pages: 1 -->
<!--zoomable 332 -->
<svg id="main" version="1.1" xmlns="http://www.w3.org/2000/svg" xmlns:xlink="http://www.w3.org/1999/xlink" xml:space="preserve" onload="init(evt)">
<style type="text/css"><![CDATA[
.edge:hover path { stroke: red; }
.edge:hover polygon { stroke: red; fill: red; }
]]></style>
<script type="text/javascript"><![CDATA[
var edges = document.getElementsByTagName('g');
if (edges && edges.length) {
  for (var i=0;i<edges.length;i++) {
    if (edges[i].id.substr(0,4)=='edge') {
      edges[i].setAttribute('class','edge');
    }
  }
}
]]></script>
        <defs>
                <circle id="rim" cx="0" cy="0" r="7"/>
                <circle id="rim2" cx="0" cy="0" r="3.5"/>
                <g id="zoomPlus">
                        <use xlink:href="#rim" fill="#404040">
                                <set attributeName="fill" to="#808080" begin="zoomplus.mouseover" end="zoomplus.mouseout"/>
                        </use>
                        <path d="M-4,0h8M0,-4v8" fill="none" stroke="white" stroke-width="1.5" pointer-events="none"/>
                </g>
                <g id="zoomMin">
                        <use xlink:href="#rim" fill="#404040">
                                <set attributeName="fill" to="#808080" begin="zoomminus.mouseover" end="zoomminus.mouseout"/>
                        </use>
                        <path d="M-4,0h8" fill="none" stroke="white" stroke-width="1.5" pointer-events="none"/>
                </g>
                <g id="dirArrow">
                        <path fill="none" stroke="white" stroke-width="1.5" d="M0,-3.0v7 M-2.5,-0.5L0,-3.0L2.5,-0.5"/>
                </g>
               <g id="resetDef">
                       <use xlink:href="#rim2" fill="#404040">
                               <set attributeName="fill" to="#808080" begin="reset.mouseover" end="reset.mouseout"/>
                       </use>
               </g>
        </defs>

<script type="text/javascript">
var viewWidth = 652;
var viewHeight = 332;
var sectionId = 'dynsection-0';
</script>
<script xlink:href="svgpan.js"/>
<svg id="graph" class="graph">
<g id="viewport">
<title>IPlugAPIBase</title>
<polygon fill="white" stroke="none" points="-4,4 -4,-328 648,-328 648,4 -4,4"/>
<!-- Node1 -->
<g id="node1" class="node"><title>Node1</title>
<polygon fill="#bfbfbf" stroke="black" points="286,-152.5 286,-171.5 364,-171.5 364,-152.5 286,-152.5"/>
<text text-anchor="middle" x="325" y="-159.5" font-family="Helvetica,sans-Serif" font-size="10.00">IPlugAPIBase</text>
</g>
<!-- Node4 -->
<g id="node4" class="node"><title>Node4</title>
<g id="a_node4"><a xlink:href="class_i_plug_a_a_x.html" target="_top" xlink:title="AAX API base class for an IPlug plug&#45;in. ">
<polygon fill="white" stroke="black" points="426,-304.5 426,-323.5 485,-323.5 485,-304.5 426,-304.5"/>
<text text-anchor="middle" x="455.5" y="-311.5" font-family="Helvetica,sans-Serif" font-size="10.00">IPlugAAX</text>
</a>
</g>
</g>
<!-- Node1&#45;&gt;Node4 -->
<g id="edge3" class="edge"><title>Node1&#45;&gt;Node4</title>
<path fill="none" stroke="midnightblue" d="M331.784,-181.261C341.374,-210.015 363.24,-264.084 400,-295 407.362,-301.192 416.867,-305.411 425.872,-308.267"/>
<polygon fill="midnightblue" stroke="midnightblue" points="335.072,-180.049 328.705,-171.581 328.401,-182.172 335.072,-180.049"/>
</g>
<!-- Node5 -->
<g id="node5" class="node"><title>Node5</title>
<g id="a_node5"><a xlink:href="class_i_plug_a_p_p.html" target="_top" xlink:title="Standalone application base class for an IPlug plug&#45;in. ">
<polygon fill="white" stroke="black" points="426.5,-266.5 426.5,-285.5 484.5,-285.5 484.5,-266.5 426.5,-266.5"/>
<text text-anchor="middle" x="455.5" y="-273.5" font-family="Helvetica,sans-Serif" font-size="10.00">IPlugAPP</text>
</a>
</g>
</g>
<!-- Node1&#45;&gt;Node5 -->
<g id="edge4" class="edge"><title>Node1&#45;&gt;Node5</title>
<path fill="none" stroke="midnightblue" d="M335.861,-180.285C348.209,-201.56 371.273,-236.394 400,-257 407.817,-262.607 417.435,-266.68 426.404,-269.582"/>
<polygon fill="midnightblue" stroke="midnightblue" points="338.91,-178.567 330.96,-171.564 332.808,-181.996 338.91,-178.567"/>
</g>
<!-- Node6 -->
<g id="node6" class="node"><title>Node6</title>
<g id="a_node6"><a xlink:href="class_i_plug_a_u.html" target="_top" xlink:title="AudioUnit v2 API base class for an IPlug plug&#45;in. ">
<polygon fill="white" stroke="black" points="429,-228.5 429,-247.5 482,-247.5 482,-228.5 429,-228.5"/>
<text text-anchor="middle" x="455.5" y="-235.5" font-family="Helvetica,sans-Serif" font-size="10.00">IPlugAU</text>
</a>
</g>
</g>
<!-- Node1&#45;&gt;Node6 -->
<g id="edge5" class="edge"><title>Node1&#45;&gt;Node6</title>
<path fill="none" stroke="midnightblue" d="M343.874,-178.428C358.194,-190.906 379.254,-207.777 400,-219 408.99,-223.863 419.468,-227.867 428.821,-230.925"/>
<polygon fill="midnightblue" stroke="midnightblue" points="346.071,-175.699 336.274,-171.666 341.418,-180.928 346.071,-175.699"/>
</g>
<!-- Node7 -->
<g id="node7" class="node"><title>Node7</title>
<g id="a_node7"><a xlink:href="class_i_plug_v_s_t2.html" target="_top" xlink:title="VST2.4 API base class for an IPlug plug&#45;in. ">
<polygon fill="white" stroke="black" points="423.5,-190.5 423.5,-209.5 487.5,-209.5 487.5,-190.5 423.5,-190.5"/>
<text text-anchor="middle" x="455.5" y="-197.5" font-family="Helvetica,sans-Serif" font-size="10.00">IPlugVST2</text>
</a>
</g>
</g>
<!-- Node1&#45;&gt;Node7 -->
<g id="edge6" class="edge"><title>Node1&#45;&gt;Node7</title>
<path fill="none" stroke="midnightblue" d="M368.124,-174.457C386.146,-179.786 406.815,-185.899 423.414,-190.807"/>
<polygon fill="midnightblue" stroke="midnightblue" points="369.008,-171.069 358.426,-171.589 367.023,-177.781 369.008,-171.069"/>
</g>
<!-- Node9 -->
<g id="node9" class="node"><title>Node9</title>
<g id="a_node9"><a xlink:href="class_i_plug_v_s_t3.html" target="_top" xlink:title="VST3 base class for a non&#45;distributed IPlug VST3 plug&#45;in. ">
<polygon fill="white" stroke="black" points="423.5,-152.5 423.5,-171.5 487.5,-171.5 487.5,-152.5 423.5,-152.5"/>
<text text-anchor="middle" x="455.5" y="-159.5" font-family="Helvetica,sans-Serif" font-size="10.00">IPlugVST3</text>
</a>
</g>
</g>
<!-- Node1&#45;&gt;Node9 -->
<g id="edge8" class="edge"><title>Node1&#45;&gt;Node9</title>
<path fill="none" stroke="midnightblue" d="M374.635,-162C390.888,-162 408.56,-162 423.139,-162"/>
<polygon fill="midnightblue" stroke="midnightblue" points="374.206,-158.5 364.206,-162 374.206,-165.5 374.206,-158.5"/>
</g>
<!-- Node10 -->
<g id="node10" class="node"><title>Node10</title>
<g id="a_node10"><a xlink:href="class_i_plug_v_s_t3_controller.html" target="_top" xlink:title="VST3 Controller API&#45;base class for a distributed IPlug VST3 plug&#45;in. ">
<polygon fill="white" stroke="black" points="400.5,-114.5 400.5,-133.5 510.5,-133.5 510.5,-114.5 400.5,-114.5"/>
<text text-anchor="middle" x="455.5" y="-121.5" font-family="Helvetica,sans-Serif" font-size="10.00">IPlugVST3Controller</text>
</a>
</g>
</g>
<!-- Node1&#45;&gt;Node10 -->
<g id="edge9" class="edge"><title>Node1&#45;&gt;Node10</title>
<path fill="none" stroke="midnightblue" d="M368.389,-149.465C385.87,-144.295 405.802,-138.401 422.084,-133.586"/>
<polygon fill="midnightblue" stroke="midnightblue" points="367.023,-146.219 358.426,-152.411 369.008,-152.931 367.023,-146.219"/>
</g>
<!-- Node11 -->
<g id="node11" class="node"><title>Node11</title>
<g id="a_node11"><a xlink:href="class_i_plug_v_s_t3_processor.html" target="_top" xlink:title="VST3 Processor API&#45;base class for a distributed IPlug VST3 plug&#45;in. ">
<polygon fill="white" stroke="black" points="400,-76.5 400,-95.5 511,-95.5 511,-76.5 400,-76.5"/>
<text text-anchor="middle" x="455.5" y="-83.5" font-family="Helvetica,sans-Serif" font-size="10.00">IPlugVST3Processor</text>
</a>
</g>
</g>
<!-- Node1&#45;&gt;Node11 -->
<g id="edge10" class="edge"><title>Node1&#45;&gt;Node11</title>
<path fill="none" stroke="midnightblue" d="M343.874,-145.572C358.194,-133.094 379.254,-116.223 400,-105 406.698,-101.376 414.223,-98.2298 421.492,-95.5962"/>
<polygon fill="midnightblue" stroke="midnightblue" points="341.418,-143.072 336.274,-152.334 346.071,-148.301 341.418,-143.072"/>
</g>
<!-- Node12 -->
<g id="node12" class="node"><title>Node12</title>
<g id="a_node12"><a xlink:href="class_i_plug_w_a_m.html" target="_top" xlink:title="WebAudioModule (WAM) API base class. ">
<polygon fill="white" stroke="black" points="424.5,-38.5 424.5,-57.5 486.5,-57.5 486.5,-38.5 424.5,-38.5"/>
<text text-anchor="middle" x="455.5" y="-45.5" font-family="Helvetica,sans-Serif" font-size="10.00">IPlugWAM</text>
</a>
</g>
</g>
<!-- Node1&#45;&gt;Node12 -->
<g id="edge11" class="edge"><title>Node1&#45;&gt;Node12</title>
<path fill="none" stroke="midnightblue" d="M335.861,-143.715C348.209,-122.44 371.273,-87.6055 400,-67 407.247,-61.8021 416.042,-57.9219 424.433,-55.0715"/>
<polygon fill="midnightblue" stroke="midnightblue" points="332.808,-142.004 330.96,-152.436 338.91,-145.433 332.808,-142.004"/>
</g>
<!-- Node13 -->
<g id="node13" class="node"><title>Node13</title>
<g id="a_node13"><a xlink:href="class_i_plug_web.html" target="_top" xlink:title="This is used for the UI &quot;editor&quot; &#45; controller side of a WAM or remote editors that communicate with d...">
<polygon fill="white" stroke="black" points="426,-0.5 426,-19.5 485,-19.5 485,-0.5 426,-0.5"/>
<text text-anchor="middle" x="455.5" y="-7.5" font-family="Helvetica,sans-Serif" font-size="10.00">IPlugWeb</text>
</a>
</g>
</g>
<!-- Node1&#45;&gt;Node13 -->
<g id="edge12" class="edge"><title>Node1&#45;&gt;Node13</title>
<path fill="none" stroke="midnightblue" d="M331.784,-142.739C341.374,-113.985 363.24,-59.9158 400,-29 407.362,-22.8084 416.867,-18.5887 425.872,-15.7325"/>
<polygon fill="midnightblue" stroke="midnightblue" points="328.401,-141.828 328.705,-152.419 335.072,-143.951 328.401,-141.828"/>
</g>
<!-- Node2 -->
<g id="node2" class="node"><title>Node2</title>
<g id="a_node2"><a xlink:href="class_i_plugin_base.html" target="_top" xlink:title="Base class that contains plug&#45;in info and state manipulation methods. ">
<polygon fill="white" stroke="black" points="179,-152.5 179,-171.5 250,-171.5 250,-152.5 179,-152.5"/>
<text text-anchor="middle" x="214.5" y="-159.5" font-family="Helvetica,sans-Serif" font-size="10.00">IPluginBase</text>
</a>
</g>
</g>
<!-- Node2&#45;&gt;Node1 -->
<g id="edge1" class="edge"><title>Node2&#45;&gt;Node1</title>
<path fill="none" stroke="midnightblue" d="M260.301,-162C268.819,-162 277.658,-162 285.942,-162"/>
<polygon fill="midnightblue" stroke="midnightblue" points="260.128,-158.5 250.128,-162 260.128,-165.5 260.128,-158.5"/>
</g>
<!-- Node3 -->
<g id="node3" class="node"><title>Node3</title>
<polygon fill="white" stroke="#bfbfbf" points="0,-152.5 0,-171.5 143,-171.5 143,-152.5 0,-152.5"/>
<text text-anchor="middle" x="71.5" y="-159.5" font-family="Helvetica,sans-Serif" font-size="10.00">EDITOR_DELEGATE_CLASS</text>
</g>
<!-- Node3&#45;&gt;Node2 -->
<g id="edge2" class="edge"><title>Node3&#45;&gt;Node2</title>
<path fill="none" stroke="midnightblue" d="M153.504,-162C162.384,-162 171.036,-162 178.881,-162"/>
<polygon fill="midnightblue" stroke="midnightblue" points="153.413,-158.5 143.413,-162 153.413,-165.5 153.413,-158.5"/>
</g>
<!-- Node8 -->
<g id="node8" class="node"><title>Node8</title>
<g id="a_node8"><a xlink:href="class_i_plug_reaper_v_s_t2.html" target="_top" xlink:title="Reaper specific VST2.4 API base class for an IPlug plug&#45;in. ">
<polygon fill="white" stroke="black" points="547,-190.5 547,-209.5 644,-209.5 644,-190.5 547,-190.5"/>
<text text-anchor="middle" x="595.5" y="-197.5" font-family="Helvetica,sans-Serif" font-size="10.00">IPlugReaperVST2</text>
</a>
</g>
</g>
<!-- Node7&#45;&gt;Node8 -->
<g id="edge7" class="edge"><title>Node7&#45;&gt;Node8</title>
<path fill="none" stroke="midnightblue" d="M498.051,-200C513.405,-200 530.925,-200 546.783,-200"/>
<polygon fill="midnightblue" stroke="midnightblue" points="497.814,-196.5 487.814,-200 497.814,-203.5 497.814,-196.5"/>
</g>
</g>
</svg>
        <g id="navigator" transform="translate(0 0)" fill="#404254">
                <rect fill="#f2f5e9" fill-opacity="0.5" stroke="#606060" stroke-width=".5" x="0" y="0" width="60" height="60"/>
                <use id="zoomplus" xlink:href="#zoomPlus" x="17" y="9" onmousedown="handleZoom(evt,'in')"/>
                <use id="zoomminus" xlink:href="#zoomMin" x="42" y="9" onmousedown="handleZoom(evt,'out')"/>
                <use id="reset" xlink:href="#resetDef" x="30" y="36" onmousedown="handleReset()"/>
                <g id="arrowUp" xlink:href="#dirArrow" transform="translate(30 24)" onmousedown="handlePan(0,-1)">
                  <use xlink:href="#rim" fill="#404040">
                        <set attributeName="fill" to="#808080" begin="arrowUp.mouseover" end="arrowUp.mouseout"/>
                  </use>
                  <path fill="none" stroke="white" stroke-width="1.5" d="M0,-3.0v7 M-2.5,-0.5L0,-3.0L2.5,-0.5"/>
                </g>
                <g id="arrowRight" xlink:href="#dirArrow" transform="rotate(90) translate(36 -43)" onmousedown="handlePan(1,0)">
                  <use xlink:href="#rim" fill="#404040">
                        <set attributeName="fill" to="#808080" begin="arrowRight.mouseover" end="arrowRight.mouseout"/>
                  </use>
                  <path fill="none" stroke="white" stroke-width="1.5" d="M0,-3.0v7 M-2.5,-0.5L0,-3.0L2.5,-0.5"/>
                </g>
                <g id="arrowDown" xlink:href="#dirArrow" transform="rotate(180) translate(-30 -48)" onmousedown="handlePan(0,1)">
                  <use xlink:href="#rim" fill="#404040">
                        <set attributeName="fill" to="#808080" begin="arrowDown.mouseover" end="arrowDown.mouseout"/>
                  </use>
                  <path fill="none" stroke="white" stroke-width="1.5" d="M0,-3.0v7 M-2.5,-0.5L0,-3.0L2.5,-0.5"/>
                </g>
                <g id="arrowLeft" xlink:href="#dirArrow" transform="rotate(270) translate(-36 17)" onmousedown="handlePan(-1,0)">
                  <use xlink:href="#rim" fill="#404040">
                        <set attributeName="fill" to="#808080" begin="arrowLeft.mouseover" end="arrowLeft.mouseout"/>
                  </use>
                  <path fill="none" stroke="white" stroke-width="1.5" d="M0,-3.0v7 M-2.5,-0.5L0,-3.0L2.5,-0.5"/>
                </g>
        </g>
        <svg viewBox="0 0 15 15" width="100%" height="30px" preserveAspectRatio="xMaxYMin meet">
         <g id="arrow_out" transform="scale(0.3 0.3)">
          <a xlink:href="class_i_plug_a_p_i_base__inherit__graph_org.svg" target="_base">
           <rect id="button" ry="5" rx="5" y="6" x="6" height="38" width="38"
                fill="#f2f5e9" fill-opacity="0.5" stroke="#606060" stroke-width="1.0"/>
           <path id="arrow"
             d="M 11.500037,31.436501 C 11.940474,20.09759 22.043105,11.32322 32.158766,21.979434 L 37.068811,17.246167 C 37.068811,17.246167 37.088388,32 37.088388,32 L 22.160133,31.978069 C 22.160133,31.978069 26.997745,27.140456 26.997745,27.140456 C 18.528582,18.264221 13.291696,25.230495 11.500037,31.436501 z"
             style="fill:#404040;"/>
          </a>
         </g>
        </svg>
</svg>
