<?xml version="1.0" encoding="UTF-8" standalone="no"?>
<!DOCTYPE svg PUBLIC "-//W3C//DTD SVG 1.1//EN"
 "http://www.w3.org/Graphics/SVG/1.1/DTD/svg11.dtd">
<!-- Generated by graphviz version 2.38.0 (20140413.2041)
 -->
<!-- Title: IPlugProcessor Pages: 1 -->
<svg width="535pt" height="140pt"
 viewBox="0.00 0.00 535.00 140.00" xmlns="http://www.w3.org/2000/svg" xmlns:xlink="http://www.w3.org/1999/xlink">
<g id="graph0" class="graph" transform="scale(1 1) rotate(0) translate(4 136)">
<title>IPlugProcessor</title>
<polygon fill="white" stroke="none" points="-4,4 -4,-136 531,-136 531,4 -4,4"/>
<!-- Node1 -->
<g id="node1" class="node"><title>Node1</title>
<polygon fill="#bfbfbf" stroke="black" points="175.5,-112.5 175.5,-131.5 261.5,-131.5 261.5,-112.5 175.5,-112.5"/>
<text text-anchor="middle" x="218.5" y="-119.5" font-family="Helvetica,sans-Serif" font-size="10.00">IPlugProcessor</text>
</g>
<!-- Node2 -->
<g id="node2" class="node"><title>Node2</title>
<g id="a_node2"><a xlink:href="class_i_plug_a_a_x.html" target="_top" xlink:title="AAX API base class for an IPlug plug&#45;in. ">
<polygon fill="white" stroke="black" points="0,-56.5 0,-75.5 59,-75.5 59,-56.5 0,-56.5"/>
<text text-anchor="middle" x="29.5" y="-63.5" font-family="Helvetica,sans-Serif" font-size="10.00">IPlugAAX</text>
</a>
</g>
</g>
<!-- Node1&#45;&gt;Node2 -->
<g id="edge1" class="edge"><title>Node1&#45;&gt;Node2</title>
<path fill="none" stroke="midnightblue" d="M178.487,-109.568C142.833,-99.381 91.462,-84.7034 59.3075,-75.5164"/>
<polygon fill="midnightblue" stroke="midnightblue" points="177.976,-113.062 188.552,-112.444 179.899,-106.331 177.976,-113.062"/>
</g>
<!-- Node3 -->
<g id="node3" class="node"><title>Node3</title>
<g id="a_node3"><a xlink:href="class_i_plug_a_p_p.html" target="_top" xlink:title="Standalone application base class for an IPlug plug&#45;in. ">
<polygon fill="white" stroke="black" points="77.5,-56.5 77.5,-75.5 135.5,-75.5 135.5,-56.5 77.5,-56.5"/>
<text text-anchor="middle" x="106.5" y="-63.5" font-family="Helvetica,sans-Serif" font-size="10.00">IPlugAPP</text>
</a>
</g>
</g>
<!-- Node1&#45;&gt;Node3 -->
<g id="edge2" class="edge"><title>Node1&#45;&gt;Node3</title>
<path fill="none" stroke="midnightblue" d="M191.251,-107.862C170.484,-97.8492 142.477,-84.3458 124.45,-75.6545"/>
<polygon fill="midnightblue" stroke="midnightblue" points="189.977,-111.134 200.505,-112.324 193.018,-104.828 189.977,-111.134"/>
</g>
<!-- Node4 -->
<g id="node4" class="node"><title>Node4</title>
<g id="a_node4"><a xlink:href="class_i_plug_a_u.html" target="_top" xlink:title="AudioUnit v2 API base class for an IPlug plug&#45;in. ">
<polygon fill="white" stroke="black" points="154,-56.5 154,-75.5 207,-75.5 207,-56.5 154,-56.5"/>
<text text-anchor="middle" x="180.5" y="-63.5" font-family="Helvetica,sans-Serif" font-size="10.00">IPlugAU</text>
</a>
</g>
</g>
<!-- Node1&#45;&gt;Node4 -->
<g id="edge3" class="edge"><title>Node1&#45;&gt;Node4</title>
<path fill="none" stroke="midnightblue" d="M206.435,-103.855C199.855,-94.5048 191.989,-83.3265 186.658,-75.7511"/>
<polygon fill="midnightblue" stroke="midnightblue" points="203.608,-105.919 212.225,-112.083 209.332,-101.891 203.608,-105.919"/>
</g>
<!-- Node5 -->
<g id="node5" class="node"><title>Node5</title>
<g id="a_node5"><a xlink:href="class_i_plug_v_s_t2.html" target="_top" xlink:title="VST2.4 API base class for an IPlug plug&#45;in. ">
<polygon fill="white" stroke="black" points="225.5,-56.5 225.5,-75.5 289.5,-75.5 289.5,-56.5 225.5,-56.5"/>
<text text-anchor="middle" x="257.5" y="-63.5" font-family="Helvetica,sans-Serif" font-size="10.00">IPlugVST2</text>
</a>
</g>
</g>
<!-- Node1&#45;&gt;Node5 -->
<g id="edge4" class="edge"><title>Node1&#45;&gt;Node5</title>
<path fill="none" stroke="midnightblue" d="M230.882,-103.855C237.635,-94.5048 245.709,-83.3265 251.18,-75.7511"/>
<polygon fill="midnightblue" stroke="midnightblue" points="227.958,-101.927 224.94,-112.083 233.632,-106.025 227.958,-101.927"/>
</g>
<!-- Node7 -->
<g id="node7" class="node"><title>Node7</title>
<g id="a_node7"><a xlink:href="class_i_plug_v_s_t3_processor_base.html" target="_top" xlink:title="Shared VST3 processor code. ">
<polygon fill="white" stroke="black" points="308,-56.5 308,-75.5 443,-75.5 443,-56.5 308,-56.5"/>
<text text-anchor="middle" x="375.5" y="-63.5" font-family="Helvetica,sans-Serif" font-size="10.00">IPlugVST3ProcessorBase</text>
</a>
</g>
</g>
<!-- Node1&#45;&gt;Node7 -->
<g id="edge6" class="edge"><title>Node1&#45;&gt;Node7</title>
<path fill="none" stroke="midnightblue" d="M252.889,-109.172C282.452,-99.0039 324.373,-84.5852 350.739,-75.5164"/>
<polygon fill="midnightblue" stroke="midnightblue" points="251.695,-105.881 243.377,-112.444 253.972,-112.501 251.695,-105.881"/>
</g>
<!-- Node10 -->
<g id="node10" class="node"><title>Node10</title>
<g id="a_node10"><a xlink:href="class_i_plug_w_a_m.html" target="_top" xlink:title="WebAudioModule (WAM) API base class. ">
<polygon fill="white" stroke="black" points="461.5,-56.5 461.5,-75.5 523.5,-75.5 523.5,-56.5 461.5,-56.5"/>
<text text-anchor="middle" x="492.5" y="-63.5" font-family="Helvetica,sans-Serif" font-size="10.00">IPlugWAM</text>
</a>
</g>
</g>
<!-- Node1&#45;&gt;Node10 -->
<g id="edge9" class="edge"><title>Node1&#45;&gt;Node10</title>
<path fill="none" stroke="midnightblue" d="M271.764,-111.249C319.254,-102.437 390.624,-88.9074 452.5,-76 455.287,-75.4186 458.18,-74.7991 461.077,-74.1677"/>
<polygon fill="midnightblue" stroke="midnightblue" points="270.905,-107.848 261.709,-113.11 272.179,-114.731 270.905,-107.848"/>
</g>
<!-- Node6 -->
<g id="node6" class="node"><title>Node6</title>
<g id="a_node6"><a xlink:href="class_i_plug_reaper_v_s_t2.html" target="_top" xlink:title="Reaper specific VST2.4 API base class for an IPlug plug&#45;in. ">
<polygon fill="white" stroke="black" points="209,-0.5 209,-19.5 306,-19.5 306,-0.5 209,-0.5"/>
<text text-anchor="middle" x="257.5" y="-7.5" font-family="Helvetica,sans-Serif" font-size="10.00">IPlugReaperVST2</text>
</a>
</g>
</g>
<!-- Node5&#45;&gt;Node6 -->
<g id="edge5" class="edge"><title>Node5&#45;&gt;Node6</title>
<path fill="none" stroke="midnightblue" d="M257.5,-45.8045C257.5,-36.9102 257.5,-26.7798 257.5,-19.7511"/>
<polygon fill="midnightblue" stroke="midnightblue" points="254,-46.083 257.5,-56.083 261,-46.083 254,-46.083"/>
</g>
<!-- Node8 -->
<g id="node8" class="node"><title>Node8</title>
<g id="a_node8"><a xlink:href="class_i_plug_v_s_t3.html" target="_top" xlink:title="VST3 base class for a non&#45;distributed IPlug VST3 plug&#45;in. ">
<polygon fill="white" stroke="black" points="333.5,-0.5 333.5,-19.5 397.5,-19.5 397.5,-0.5 333.5,-0.5"/>
<text text-anchor="middle" x="365.5" y="-7.5" font-family="Helvetica,sans-Serif" font-size="10.00">IPlugVST3</text>
</a>
</g>
</g>
<!-- Node7&#45;&gt;Node8 -->
<g id="edge7" class="edge"><title>Node7&#45;&gt;Node8</title>
<path fill="none" stroke="midnightblue" d="M372,-46.1005C370.34,-37.1357 368.437,-26.8579 367.121,-19.7511"/>
<polygon fill="midnightblue" stroke="midnightblue" points="368.586,-46.8875 373.849,-56.083 375.469,-45.6128 368.586,-46.8875"/>
</g>
<!-- Node9 -->
<g id="node9" class="node"><title>Node9</title>
<g id="a_node9"><a xlink:href="class_i_plug_v_s_t3_processor.html" target="_top" xlink:title="VST3 Processor API&#45;base class for a distributed IPlug VST3 plug&#45;in. ">
<polygon fill="white" stroke="black" points="416,-0.5 416,-19.5 527,-19.5 527,-0.5 416,-0.5"/>
<text text-anchor="middle" x="471.5" y="-7.5" font-family="Helvetica,sans-Serif" font-size="10.00">IPlugVST3Processor</text>
</a>
</g>
</g>
<!-- Node7&#45;&gt;Node9 -->
<g id="edge8" class="edge"><title>Node7&#45;&gt;Node9</title>
<path fill="none" stroke="midnightblue" d="M400.074,-51.1774C417.739,-41.2407 441.013,-28.1492 456.114,-19.6545"/>
<polygon fill="midnightblue" stroke="midnightblue" points="397.924,-48.3708 390.924,-56.324 401.356,-54.4718 397.924,-48.3708"/>
</g>
</g>
</svg>
