<?xml version="1.0" encoding="UTF-8" standalone="no"?>
<!DOCTYPE svg PUBLIC "-//W3C//DTD SVG 1.1//EN"
 "http://www.w3.org/Graphics/SVG/1.1/DTD/svg11.dtd">
<!-- Generated by graphviz version 2.38.0 (20140413.2041)
 -->
<!-- Title: IVTrackControlBase Pages: 1 -->
<svg width="399pt" height="127pt"
 viewBox="0.00 0.00 399.00 126.50" xmlns="http://www.w3.org/2000/svg" xmlns:xlink="http://www.w3.org/1999/xlink">
<g id="graph0" class="graph" transform="scale(1 1) rotate(0) translate(4 122.5)">
<title>IVTrackControlBase</title>
<polygon fill="white" stroke="none" points="-4,4 -4,-122.5 395,-122.5 395,4 -4,4"/>
<!-- Node1 -->
<g id="node1" class="node"><title>Node1</title>
<polygon fill="#bfbfbf" stroke="black" points="110,-44.5 110,-63.5 218,-63.5 218,-44.5 110,-44.5"/>
<text text-anchor="middle" x="164" y="-51.5" font-family="Helvetica,sans-Serif" font-size="10.00">IVTrackControlBase</text>
</g>
<!-- Node4 -->
<g id="node4" class="node"><title>Node4</title>
<g id="a_node4"><a xlink:href="class_i_v_meter_control.html" target="_top" xlink:title="Vectorial multichannel capable meter control. ">
<polygon fill="white" stroke="black" points="254,-88 254,-118 391,-118 391,-88 254,-88"/>
<text text-anchor="start" x="262" y="-106" font-family="Helvetica,sans-Serif" font-size="10.00">IVMeterControl&lt; MAXNC,</text>
<text text-anchor="middle" x="322.5" y="-95" font-family="Helvetica,sans-Serif" font-size="10.00"> QUEUE_SIZE &gt;</text>
</a>
</g>
</g>
<!-- Node1&#45;&gt;Node4 -->
<g id="edge3" class="edge"><title>Node1&#45;&gt;Node4</title>
<path fill="none" stroke="midnightblue" d="M205.343,-66.6313C226.145,-73.1446 251.661,-81.1334 273.474,-87.963"/>
<polygon fill="midnightblue" stroke="midnightblue" points="206.135,-63.2119 195.546,-63.564 204.044,-69.8922 206.135,-63.2119"/>
</g>
<!-- Node5 -->
<g id="node5" class="node"><title>Node5</title>
<g id="a_node5"><a xlink:href="class_i_v_multi_slider_control.html" target="_top" xlink:title="A vectorial multi&#45;slider control. ">
<polygon fill="white" stroke="black" points="267.5,-39 267.5,-69 377.5,-69 377.5,-39 267.5,-39"/>
<text text-anchor="start" x="275.5" y="-57" font-family="Helvetica,sans-Serif" font-size="10.00">IVMultiSliderControl</text>
<text text-anchor="middle" x="322.5" y="-46" font-family="Helvetica,sans-Serif" font-size="10.00">&lt; MAXNC &gt;</text>
</a>
</g>
</g>
<!-- Node1&#45;&gt;Node5 -->
<g id="edge4" class="edge"><title>Node1&#45;&gt;Node5</title>
<path fill="none" stroke="midnightblue" d="M228.567,-54C241.4,-54 254.779,-54 267.256,-54"/>
<polygon fill="midnightblue" stroke="midnightblue" points="228.421,-50.5001 218.421,-54 228.421,-57.5001 228.421,-50.5001"/>
</g>
<!-- Node6 -->
<g id="node6" class="node"><title>Node6</title>
<g id="a_node6"><a xlink:href="class_i_v_range_slider_control.html" target="_top" xlink:title="IVRangeSliderControl">
<polygon fill="white" stroke="black" points="264,-0.5 264,-19.5 381,-19.5 381,-0.5 264,-0.5"/>
<text text-anchor="middle" x="322.5" y="-7.5" font-family="Helvetica,sans-Serif" font-size="10.00">IVRangeSliderControl</text>
</a>
</g>
</g>
<!-- Node1&#45;&gt;Node6 -->
<g id="edge5" class="edge"><title>Node1&#45;&gt;Node6</title>
<path fill="none" stroke="midnightblue" d="M208.895,-41.6588C233.822,-34.6507 264.551,-26.0112 287.608,-19.5287"/>
<polygon fill="midnightblue" stroke="midnightblue" points="207.638,-38.3767 198.958,-44.4527 209.532,-45.1154 207.638,-38.3767"/>
</g>
<!-- Node2 -->
<g id="node2" class="node"><title>Node2</title>
<g id="a_node2"><a xlink:href="class_i_control.html" target="_top" xlink:title="The lowest level base class of an IGraphics control. ">
<polygon fill="white" stroke="black" points="10.5,-63.5 10.5,-82.5 63.5,-82.5 63.5,-63.5 10.5,-63.5"/>
<text text-anchor="middle" x="37" y="-70.5" font-family="Helvetica,sans-Serif" font-size="10.00">IControl</text>
</a>
</g>
</g>
<!-- Node2&#45;&gt;Node1 -->
<g id="edge1" class="edge"><title>Node2&#45;&gt;Node1</title>
<path fill="none" stroke="midnightblue" d="M73.5102,-67.6025C84.8111,-65.8847 97.5693,-63.9455 109.837,-62.0808"/>
<polygon fill="midnightblue" stroke="midnightblue" points="72.9577,-64.1461 63.5973,-69.1092 74.0097,-71.0666 72.9577,-64.1461"/>
</g>
<!-- Node3 -->
<g id="node3" class="node"><title>Node3</title>
<g id="a_node3"><a xlink:href="class_i_vector_base.html" target="_top" xlink:title="A base interface to be combined with IControl for vectorial controls &quot;IVControls&quot;, in order for them to share a common style If you need more flexibility, you&#39;re on your own! ">
<polygon fill="white" stroke="black" points="0,-25.5 0,-44.5 74,-44.5 74,-25.5 0,-25.5"/>
<text text-anchor="middle" x="37" y="-32.5" font-family="Helvetica,sans-Serif" font-size="10.00">IVectorBase</text>
</a>
</g>
</g>
<!-- Node3&#45;&gt;Node1 -->
<g id="edge2" class="edge"><title>Node3&#45;&gt;Node1</title>
<path fill="none" stroke="midnightblue" d="M84.0809,-42.0043C92.4251,-43.2726 101.19,-44.6048 109.72,-45.9014"/>
<polygon fill="midnightblue" stroke="midnightblue" points="84.5676,-38.5382 74.1552,-40.4956 83.5156,-45.4587 84.5676,-38.5382"/>
</g>
</g>
</svg>
