<?xml version="1.0" encoding="UTF-8" standalone="no"?>
<!DOCTYPE svg PUBLIC "-//W3C//DTD SVG 1.1//EN"
 "http://www.w3.org/Graphics/SVG/1.1/DTD/svg11.dtd">
<!-- Generated by graphviz version 2.38.0 (20140413.2041)
 -->
<!-- Title: Graphical Class Hierarchy Pages: 1 -->
<svg width="756pt" height="560pt"
 viewBox="0.00 0.00 756.00 560.00" xmlns="http://www.w3.org/2000/svg" xmlns:xlink="http://www.w3.org/1999/xlink">
<g id="graph0" class="graph" transform="scale(1 1) rotate(0) translate(4 556)">
<title>Graphical Class Hierarchy</title>
<polygon fill="white" stroke="none" points="-4,4 -4,-556 752,-556 752,4 -4,4"/>
<!-- Node1 -->
<g id="node1" class="node"><title>Node1</title>
<polygon fill="white" stroke="#bfbfbf" points="304,-532.5 304,-551.5 430,-551.5 430,-532.5 304,-532.5"/>
<text text-anchor="middle" x="367" y="-539.5" font-family="Helvetica,sans-Serif" font-size="10.00">AAX_CIPlugParameters</text>
</g>
<!-- Node2 -->
<g id="node2" class="node"><title>Node2</title>
<g id="a_node2"><a xlink:href="class_i_plug_a_a_x.html" target="_top" xlink:title="AAX API base class for an IPlug plug&#45;in. ">
<polygon fill="white" stroke="black" points="504,-532.5 504,-551.5 563,-551.5 563,-532.5 504,-532.5"/>
<text text-anchor="middle" x="533.5" y="-539.5" font-family="Helvetica,sans-Serif" font-size="10.00">IPlugAAX</text>
</a>
</g>
</g>
<!-- Node1&#45;&gt;Node2 -->
<g id="edge1" class="edge"><title>Node1&#45;&gt;Node2</title>
<path fill="none" stroke="midnightblue" d="M440.387,-542C462.783,-542 486.169,-542 503.773,-542"/>
<polygon fill="midnightblue" stroke="midnightblue" points="440.19,-538.5 430.19,-542 440.19,-545.5 440.19,-538.5"/>
</g>
<!-- Node3 -->
<g id="node3" class="node"><title>Node3</title>
<polygon fill="white" stroke="#bfbfbf" points="498,-494.5 498,-513.5 569,-513.5 569,-494.5 498,-494.5"/>
<text text-anchor="middle" x="533.5" y="-501.5" font-family="Helvetica,sans-Serif" font-size="10.00">AudioEffect</text>
</g>
<!-- Node4 -->
<g id="node4" class="node"><title>Node4</title>
<g id="a_node4"><a xlink:href="class_i_plug_v_s_t3_processor.html" target="_top" xlink:title="VST3 Processor API&#45;base class for a distributed IPlug VST3 plug&#45;in. ">
<polygon fill="white" stroke="black" points="637,-456.5 637,-475.5 748,-475.5 748,-456.5 637,-456.5"/>
<text text-anchor="middle" x="692.5" y="-463.5" font-family="Helvetica,sans-Serif" font-size="10.00">IPlugVST3Processor</text>
</a>
</g>
</g>
<!-- Node3&#45;&gt;Node4 -->
<g id="edge2" class="edge"><title>Node3&#45;&gt;Node4</title>
<path fill="none" stroke="midnightblue" d="M579.192,-493.183C602.156,-487.625 629.893,-480.911 652.056,-475.547"/>
<polygon fill="midnightblue" stroke="midnightblue" points="578.239,-489.812 569.343,-495.567 579.886,-496.616 578.239,-489.812"/>
</g>
<!-- Node5 -->
<g id="node5" class="node"><title>Node5</title>
<polygon fill="white" stroke="#bfbfbf" points="484.5,-114.5 484.5,-133.5 582.5,-133.5 582.5,-114.5 484.5,-114.5"/>
<text text-anchor="middle" x="533.5" y="-121.5" font-family="Helvetica,sans-Serif" font-size="10.00">EditControllerEx1</text>
</g>
<!-- Node6 -->
<g id="node6" class="node"><title>Node6</title>
<g id="a_node6"><a xlink:href="class_i_plug_v_s_t3_controller.html" target="_top" xlink:title="VST3 Controller API&#45;base class for a distributed IPlug VST3 plug&#45;in. ">
<polygon fill="white" stroke="black" points="637.5,-171.5 637.5,-190.5 747.5,-190.5 747.5,-171.5 637.5,-171.5"/>
<text text-anchor="middle" x="692.5" y="-178.5" font-family="Helvetica,sans-Serif" font-size="10.00">IPlugVST3Controller</text>
</a>
</g>
</g>
<!-- Node5&#45;&gt;Node6 -->
<g id="edge3" class="edge"><title>Node5&#45;&gt;Node6</title>
<path fill="none" stroke="midnightblue" d="M580.833,-136.469C587.638,-138.522 594.531,-140.727 601,-143 625.276,-151.531 652.4,-163.219 670.567,-171.371"/>
<polygon fill="midnightblue" stroke="midnightblue" points="581.567,-133.036 570.986,-133.578 579.595,-139.753 581.567,-133.036"/>
</g>
<!-- Node7 -->
<g id="node7" class="node"><title>Node7</title>
<polygon fill="white" stroke="#bfbfbf" points="0,-209.5 0,-228.5 143,-228.5 143,-209.5 0,-209.5"/>
<text text-anchor="middle" x="71.5" y="-216.5" font-family="Helvetica,sans-Serif" font-size="10.00">EDITOR_DELEGATE_CLASS</text>
</g>
<!-- Node8 -->
<g id="node8" class="node"><title>Node8</title>
<g id="a_node8"><a xlink:href="class_i_plugin_base.html" target="_top" xlink:title="Base class that contains plug&#45;in info and state manipulation methods. ">
<polygon fill="white" stroke="black" points="188,-228.5 188,-247.5 259,-247.5 259,-228.5 188,-228.5"/>
<text text-anchor="middle" x="223.5" y="-235.5" font-family="Helvetica,sans-Serif" font-size="10.00">IPluginBase</text>
</a>
</g>
</g>
<!-- Node7&#45;&gt;Node8 -->
<g id="edge4" class="edge"><title>Node7&#45;&gt;Node8</title>
<path fill="none" stroke="midnightblue" d="M153.289,-229.233C165.385,-230.765 177.28,-232.272 187.704,-233.593"/>
<polygon fill="midnightblue" stroke="midnightblue" points="153.468,-225.728 143.108,-227.944 152.589,-232.673 153.468,-225.728"/>
</g>
<!-- Node17 -->
<g id="node17" class="node"><title>Node17</title>
<g id="a_node17"><a xlink:href="class_reaper_ext_base.html" target="_top" xlink:title="ReaperExtBase">
<polygon fill="white" stroke="black" points="179,-190.5 179,-209.5 268,-209.5 268,-190.5 179,-190.5"/>
<text text-anchor="middle" x="223.5" y="-197.5" font-family="Helvetica,sans-Serif" font-size="10.00">ReaperExtBase</text>
</a>
</g>
</g>
<!-- Node7&#45;&gt;Node17 -->
<g id="edge16" class="edge"><title>Node7&#45;&gt;Node17</title>
<path fill="none" stroke="midnightblue" d="M153.089,-208.792C161.915,-207.674 170.636,-206.569 178.761,-205.54"/>
<polygon fill="midnightblue" stroke="midnightblue" points="152.589,-205.327 143.108,-210.056 153.468,-212.272 152.589,-205.327"/>
</g>
<!-- Node9 -->
<g id="node9" class="node"><title>Node9</title>
<g id="a_node9"><a xlink:href="class_i_plug_a_p_i_base.html" target="_top" xlink:title="The base class of an IPlug plug&#45;in, which interacts with the different plug&#45;in APIs. ">
<polygon fill="white" stroke="black" points="328,-228.5 328,-247.5 406,-247.5 406,-228.5 328,-228.5"/>
<text text-anchor="middle" x="367" y="-235.5" font-family="Helvetica,sans-Serif" font-size="10.00">IPlugAPIBase</text>
</a>
</g>
</g>
<!-- Node8&#45;&gt;Node9 -->
<g id="edge5" class="edge"><title>Node8&#45;&gt;Node9</title>
<path fill="none" stroke="midnightblue" d="M269.232,-238C288.044,-238 309.708,-238 327.762,-238"/>
<polygon fill="midnightblue" stroke="midnightblue" points="269.115,-234.5 259.115,-238 269.115,-241.5 269.115,-234.5"/>
</g>
<!-- Node9&#45;&gt;Node2 -->
<g id="edge6" class="edge"><title>Node9&#45;&gt;Node2</title>
<path fill="none" stroke="midnightblue" d="M368.787,-257.588C371.935,-308.954 387.648,-448.686 466,-523 476.193,-532.668 490.959,-537.467 503.989,-539.829"/>
<polygon fill="midnightblue" stroke="midnightblue" points="372.278,-257.322 368.267,-247.516 365.288,-257.683 372.278,-257.322"/>
</g>
<!-- Node9&#45;&gt;Node4 -->
<g id="edge13" class="edge"><title>Node9&#45;&gt;Node4</title>
<path fill="none" stroke="midnightblue" d="M370.657,-257.565C377.591,-300.214 400.485,-401.386 466,-447 516.46,-482.132 589.499,-481.411 638.653,-475.542"/>
<polygon fill="midnightblue" stroke="midnightblue" points="374.109,-256.983 369.161,-247.614 367.186,-258.023 374.109,-256.983"/>
</g>
<!-- Node9&#45;&gt;Node6 -->
<g id="edge12" class="edge"><title>Node9&#45;&gt;Node6</title>
<path fill="none" stroke="midnightblue" d="M416.144,-238.474C463.757,-237.92 538.371,-234.29 601,-219 627.156,-212.614 655.499,-199.636 673.366,-190.635"/>
<polygon fill="midnightblue" stroke="midnightblue" points="416.087,-234.974 406.114,-238.55 416.14,-241.974 416.087,-234.974"/>
</g>
<!-- Node10 -->
<g id="node10" class="node"><title>Node10</title>
<g id="a_node10"><a xlink:href="class_i_plug_a_p_p.html" target="_top" xlink:title="Standalone application base class for an IPlug plug&#45;in. ">
<polygon fill="white" stroke="black" points="504.5,-152.5 504.5,-171.5 562.5,-171.5 562.5,-152.5 504.5,-152.5"/>
<text text-anchor="middle" x="533.5" y="-159.5" font-family="Helvetica,sans-Serif" font-size="10.00">IPlugAPP</text>
</a>
</g>
</g>
<!-- Node9&#45;&gt;Node10 -->
<g id="edge7" class="edge"><title>Node9&#45;&gt;Node10</title>
<path fill="none" stroke="midnightblue" d="M391.883,-223.188C415.866,-208.483 451.307,-187.256 466,-181 478.263,-175.779 492.393,-171.513 504.467,-168.356"/>
<polygon fill="midnightblue" stroke="midnightblue" points="390,-220.237 383.32,-228.46 393.67,-226.198 390,-220.237"/>
</g>
<!-- Node11 -->
<g id="node11" class="node"><title>Node11</title>
<g id="a_node11"><a xlink:href="class_i_plug_a_u.html" target="_top" xlink:title="AudioUnit v2 API base class for an IPlug plug&#45;in. ">
<polygon fill="white" stroke="black" points="507,-190.5 507,-209.5 560,-209.5 560,-190.5 507,-190.5"/>
<text text-anchor="middle" x="533.5" y="-197.5" font-family="Helvetica,sans-Serif" font-size="10.00">IPlugAU</text>
</a>
</g>
</g>
<!-- Node9&#45;&gt;Node11 -->
<g id="edge8" class="edge"><title>Node9&#45;&gt;Node11</title>
<path fill="none" stroke="midnightblue" d="M415.917,-226.931C445.618,-220.07 482.597,-211.528 506.842,-205.927"/>
<polygon fill="midnightblue" stroke="midnightblue" points="415.109,-223.525 406.153,-229.187 416.684,-230.346 415.109,-223.525"/>
</g>
<!-- Node12 -->
<g id="node12" class="node"><title>Node12</title>
<g id="a_node12"><a xlink:href="class_i_plug_v_s_t2.html" target="_top" xlink:title="VST2.4 API base class for an IPlug plug&#45;in. ">
<polygon fill="white" stroke="black" points="501.5,-38.5 501.5,-57.5 565.5,-57.5 565.5,-38.5 501.5,-38.5"/>
<text text-anchor="middle" x="533.5" y="-45.5" font-family="Helvetica,sans-Serif" font-size="10.00">IPlugVST2</text>
</a>
</g>
</g>
<!-- Node9&#45;&gt;Node12 -->
<g id="edge9" class="edge"><title>Node9&#45;&gt;Node12</title>
<path fill="none" stroke="midnightblue" d="M401.402,-223.661C411.882,-217.706 422.627,-209.849 430,-200 466.701,-150.978 423.001,-110.603 466,-67 475.274,-57.5957 488.856,-52.7652 501.332,-50.3143"/>
<polygon fill="midnightblue" stroke="midnightblue" points="399.583,-220.663 392.351,-228.406 402.833,-226.862 399.583,-220.663"/>
</g>
<!-- Node14 -->
<g id="node14" class="node"><title>Node14</title>
<g id="a_node14"><a xlink:href="class_i_plug_v_s_t3.html" target="_top" xlink:title="VST3 base class for a non&#45;distributed IPlug VST3 plug&#45;in. ">
<polygon fill="white" stroke="black" points="660.5,-323.5 660.5,-342.5 724.5,-342.5 724.5,-323.5 660.5,-323.5"/>
<text text-anchor="middle" x="692.5" y="-330.5" font-family="Helvetica,sans-Serif" font-size="10.00">IPlugVST3</text>
</a>
</g>
</g>
<!-- Node9&#45;&gt;Node14 -->
<g id="edge11" class="edge"><title>Node9&#45;&gt;Node14</title>
<path fill="none" stroke="midnightblue" d="M379.954,-256.222C396.237,-279.184 427.781,-317.516 466,-333 530.949,-359.313 615.32,-348.829 660.198,-340.142"/>
<polygon fill="midnightblue" stroke="midnightblue" points="382.657,-253.975 374.116,-247.707 376.884,-257.933 382.657,-253.975"/>
</g>
<!-- Node15 -->
<g id="node15" class="node"><title>Node15</title>
<g id="a_node15"><a xlink:href="class_i_plug_w_a_m.html" target="_top" xlink:title="WebAudioModule (WAM) API base class. ">
<polygon fill="white" stroke="black" points="502.5,-0.5 502.5,-19.5 564.5,-19.5 564.5,-0.5 502.5,-0.5"/>
<text text-anchor="middle" x="533.5" y="-7.5" font-family="Helvetica,sans-Serif" font-size="10.00">IPlugWAM</text>
</a>
</g>
</g>
<!-- Node9&#45;&gt;Node15 -->
<g id="edge14" class="edge"><title>Node9&#45;&gt;Node15</title>
<path fill="none" stroke="midnightblue" d="M401.978,-223.756C412.402,-217.835 422.966,-209.975 430,-200 474.761,-136.53 413.06,-85.8275 466,-29 475.33,-18.9845 489.538,-14.1213 502.429,-11.8077"/>
<polygon fill="midnightblue" stroke="midnightblue" points="400.195,-220.738 392.945,-228.463 403.43,-226.945 400.195,-220.738"/>
</g>
<!-- Node16 -->
<g id="node16" class="node"><title>Node16</title>
<g id="a_node16"><a xlink:href="class_i_plug_web.html" target="_top" xlink:title="This is used for the UI &quot;editor&quot; &#45; controller side of a WAM or remote editors that communicate with d...">
<polygon fill="white" stroke="black" points="504,-418.5 504,-437.5 563,-437.5 563,-418.5 504,-418.5"/>
<text text-anchor="middle" x="533.5" y="-425.5" font-family="Helvetica,sans-Serif" font-size="10.00">IPlugWeb</text>
</a>
</g>
</g>
<!-- Node9&#45;&gt;Node16 -->
<g id="edge15" class="edge"><title>Node9&#45;&gt;Node16</title>
<path fill="none" stroke="midnightblue" d="M373.754,-257.559C385.251,-293.177 414.486,-368.66 466,-409 476.777,-417.439 491.143,-422.13 503.764,-424.737"/>
<polygon fill="midnightblue" stroke="midnightblue" points="377.054,-256.383 370.751,-247.867 370.368,-258.455 377.054,-256.383"/>
</g>
<!-- Node13 -->
<g id="node13" class="node"><title>Node13</title>
<g id="a_node13"><a xlink:href="class_i_plug_reaper_v_s_t2.html" target="_top" xlink:title="Reaper specific VST2.4 API base class for an IPlug plug&#45;in. ">
<polygon fill="white" stroke="black" points="644,-38.5 644,-57.5 741,-57.5 741,-38.5 644,-38.5"/>
<text text-anchor="middle" x="692.5" y="-45.5" font-family="Helvetica,sans-Serif" font-size="10.00">IPlugReaperVST2</text>
</a>
</g>
</g>
<!-- Node12&#45;&gt;Node13 -->
<g id="edge10" class="edge"><title>Node12&#45;&gt;Node13</title>
<path fill="none" stroke="midnightblue" d="M575.68,-48C596.586,-48 622.094,-48 643.845,-48"/>
<polygon fill="midnightblue" stroke="midnightblue" points="575.518,-44.5001 565.518,-48 575.518,-51.5001 575.518,-44.5001"/>
</g>
<!-- Node18 -->
<g id="node18" class="node"><title>Node18</title>
<polygon fill="white" stroke="#bfbfbf" points="494.5,-76.5 494.5,-95.5 572.5,-95.5 572.5,-76.5 494.5,-76.5"/>
<text text-anchor="middle" x="533.5" y="-83.5" font-family="Helvetica,sans-Serif" font-size="10.00">IMidiMapping</text>
</g>
<!-- Node18&#45;&gt;Node6 -->
<g id="edge17" class="edge"><title>Node18&#45;&gt;Node6</title>
<path fill="none" stroke="midnightblue" d="M582.056,-96.9216C588.595,-99.1835 595.087,-101.858 601,-105 634.881,-123.003 667.553,-155.257 682.705,-171.336"/>
<polygon fill="midnightblue" stroke="midnightblue" points="583.095,-93.5793 572.505,-93.8967 580.981,-100.253 583.095,-93.5793"/>
</g>
<!-- Node19 -->
<g id="node19" class="node"><title>Node19</title>
<g id="a_node19"><a xlink:href="class_i_plug_processor.html" target="_top" xlink:title="The base class for IPlug Audio Processing. ">
<polygon fill="white" stroke="black" points="324,-171.5 324,-190.5 410,-190.5 410,-171.5 324,-171.5"/>
<text text-anchor="middle" x="367" y="-178.5" font-family="Helvetica,sans-Serif" font-size="10.00">IPlugProcessor</text>
</a>
</g>
</g>
<!-- Node19&#45;&gt;Node2 -->
<g id="edge18" class="edge"><title>Node19&#45;&gt;Node2</title>
<path fill="none" stroke="midnightblue" d="M403.007,-195.175C413.3,-201.04 423.525,-208.885 430,-219 503.352,-333.588 377.813,-419.395 466,-523 475.261,-533.881 490.282,-538.751 503.706,-540.848"/>
<polygon fill="midnightblue" stroke="midnightblue" points="404.525,-192.019 394.036,-190.523 401.303,-198.233 404.525,-192.019"/>
</g>
<!-- Node19&#45;&gt;Node10 -->
<g id="edge19" class="edge"><title>Node19&#45;&gt;Node10</title>
<path fill="none" stroke="midnightblue" d="M420.375,-174.951C448.281,-171.727 481.497,-167.891 504.497,-165.234"/>
<polygon fill="midnightblue" stroke="midnightblue" points="419.895,-171.483 410.363,-176.107 420.698,-178.436 419.895,-171.483"/>
</g>
<!-- Node19&#45;&gt;Node11 -->
<g id="edge20" class="edge"><title>Node19&#45;&gt;Node11</title>
<path fill="none" stroke="midnightblue" d="M420.673,-187.084C449.425,-190.405 483.74,-194.368 506.706,-197.021"/>
<polygon fill="midnightblue" stroke="midnightblue" points="420.698,-183.564 410.363,-185.893 419.895,-190.517 420.698,-183.564"/>
</g>
<!-- Node19&#45;&gt;Node12 -->
<g id="edge21" class="edge"><title>Node19&#45;&gt;Node12</title>
<path fill="none" stroke="midnightblue" d="M378.791,-162.775C394.696,-137.497 426.825,-92.0831 466,-67 476.618,-60.2018 489.713,-55.7839 501.467,-52.9374"/>
<polygon fill="midnightblue" stroke="midnightblue" points="375.751,-161.037 373.509,-171.392 381.719,-164.695 375.751,-161.037"/>
</g>
<!-- Node19&#45;&gt;Node15 -->
<g id="edge25" class="edge"><title>Node19&#45;&gt;Node15</title>
<path fill="none" stroke="midnightblue" d="M375.082,-161.85C388.036,-129.499 418.648,-64.1246 466,-29 476.512,-21.2028 490.128,-16.6009 502.299,-13.8869"/>
<polygon fill="midnightblue" stroke="midnightblue" points="371.707,-160.875 371.367,-171.464 378.236,-163.398 371.707,-160.875"/>
</g>
<!-- Node20 -->
<g id="node20" class="node"><title>Node20</title>
<g id="a_node20"><a xlink:href="class_i_plug_v_s_t3_processor_base.html" target="_top" xlink:title="Shared VST3 processor code. ">
<polygon fill="white" stroke="black" points="466,-380.5 466,-399.5 601,-399.5 601,-380.5 466,-380.5"/>
<text text-anchor="middle" x="533.5" y="-387.5" font-family="Helvetica,sans-Serif" font-size="10.00">IPlugVST3ProcessorBase</text>
</a>
</g>
</g>
<!-- Node19&#45;&gt;Node20 -->
<g id="edge22" class="edge"><title>Node19&#45;&gt;Node20</title>
<path fill="none" stroke="midnightblue" d="M400.919,-195.376C411.459,-201.362 422.363,-209.229 430,-219 462.72,-260.863 436.703,-288.674 466,-333 479.331,-353.17 501.755,-370.273 516.835,-380.338"/>
<polygon fill="midnightblue" stroke="midnightblue" points="402.321,-192.159 391.842,-190.6 399.062,-198.354 402.321,-192.159"/>
</g>
<!-- Node20&#45;&gt;Node4 -->
<g id="edge24" class="edge"><title>Node20&#45;&gt;Node4</title>
<path fill="none" stroke="midnightblue" d="M584.425,-402.585C590.1,-404.507 595.733,-406.647 601,-409 630.668,-422.256 662.065,-444.024 678.963,-456.473"/>
<polygon fill="midnightblue" stroke="midnightblue" points="585.481,-399.248 574.891,-399.554 583.361,-405.919 585.481,-399.248"/>
</g>
<!-- Node20&#45;&gt;Node14 -->
<g id="edge23" class="edge"><title>Node20&#45;&gt;Node14</title>
<path fill="none" stroke="midnightblue" d="M570.574,-377.005C580.441,-373.444 591.135,-369.579 601,-366 622.695,-358.13 647.299,-349.155 665.37,-342.554"/>
<polygon fill="midnightblue" stroke="midnightblue" points="569.261,-373.758 561.042,-380.444 571.636,-380.343 569.261,-373.758"/>
</g>
<!-- Node21 -->
<g id="node21" class="node"><title>Node21</title>
<g id="a_node21"><a xlink:href="class_i_plug_v_s_t3_controller_base.html" target="_top" xlink:title="Shared VST3 controller code. ">
<polygon fill="white" stroke="black" points="466.5,-266.5 466.5,-285.5 600.5,-285.5 600.5,-266.5 466.5,-266.5"/>
<text text-anchor="middle" x="533.5" y="-273.5" font-family="Helvetica,sans-Serif" font-size="10.00">IPlugVST3ControllerBase</text>
</a>
</g>
</g>
<!-- Node21&#45;&gt;Node6 -->
<g id="edge27" class="edge"><title>Node21&#45;&gt;Node6</title>
<path fill="none" stroke="midnightblue" d="M576.999,-262.956C585.174,-259.814 593.514,-256.146 601,-252 632.969,-234.294 665.478,-205.621 681.419,-190.708"/>
<polygon fill="midnightblue" stroke="midnightblue" points="575.738,-259.691 567.54,-266.401 578.134,-266.268 575.738,-259.691"/>
</g>
<!-- Node21&#45;&gt;Node14 -->
<g id="edge26" class="edge"><title>Node21&#45;&gt;Node14</title>
<path fill="none" stroke="midnightblue" d="M580.833,-288.469C587.638,-290.522 594.531,-292.727 601,-295 625.276,-303.531 652.4,-315.219 670.567,-323.371"/>
<polygon fill="midnightblue" stroke="midnightblue" points="581.567,-285.036 570.986,-285.578 579.595,-291.753 581.567,-285.036"/>
</g>
<!-- Node22 -->
<g id="node22" class="node"><title>Node22</title>
<polygon fill="white" stroke="#bfbfbf" points="335,-0.5 335,-19.5 399,-19.5 399,-0.5 335,-0.5"/>
<text text-anchor="middle" x="367" y="-7.5" font-family="Helvetica,sans-Serif" font-size="10.00">Processor</text>
</g>
<!-- Node22&#45;&gt;Node15 -->
<g id="edge28" class="edge"><title>Node22&#45;&gt;Node15</title>
<path fill="none" stroke="midnightblue" d="M409.539,-10C438.46,-10 476.362,-10 502.398,-10"/>
<polygon fill="midnightblue" stroke="midnightblue" points="409.328,-6.5001 399.328,-10 409.328,-13.5001 409.328,-6.5001"/>
</g>
<!-- Node23 -->
<g id="node23" class="node"><title>Node23</title>
<polygon fill="white" stroke="#bfbfbf" points="469,-304.5 469,-323.5 598,-323.5 598,-304.5 469,-304.5"/>
<text text-anchor="middle" x="533.5" y="-311.5" font-family="Helvetica,sans-Serif" font-size="10.00">SingleComponentEffect</text>
</g>
<!-- Node23&#45;&gt;Node14 -->
<g id="edge29" class="edge"><title>Node23&#45;&gt;Node14</title>
<path fill="none" stroke="midnightblue" d="M608.471,-322.952C626.781,-325.168 645.421,-327.424 660.388,-329.235"/>
<polygon fill="midnightblue" stroke="midnightblue" points="608.706,-319.455 598.358,-321.728 607.865,-326.404 608.706,-319.455"/>
</g>
</g>
</svg>
